<?xml version="1.0" encoding="utf-8"?>
<!-- Generator: Adobe Illustrator 16.0.0, SVG Export Plug-In . SVG Version: 6.00 Build 0)  -->
<!DOCTYPE svg PUBLIC "-//W3C//DTD SVG 1.1//EN" "http://www.w3.org/Graphics/SVG/1.1/DTD/svg11.dtd">
<svg version="1.1" id="Layer_1" xmlns="http://www.w3.org/2000/svg" xmlns:xlink="http://www.w3.org/1999/xlink" x="0px" y="0px"
	 width="396.272px" height="117.102px" viewBox="198.051 222.039 396.272 117.102"
	 enable-background="new 198.051 222.039 396.272 117.102" xml:space="preserve">
<g>
	<g>
		<path fill="#070606" d="M368.822,255.544c0,12.696-5.71,19.742-16.888,19.742c-4.98,0-8.808-1.458-11.42-4.191l5.893-7.836
			c1.519,1.762,3.159,2.369,5.407,2.369c5.832,0,6.803-3.584,6.803-11.056v-22.658h10.205V255.544z"/>
		<path fill="#070606" d="M384.982,267.39l-2.552,7.046h-10.752l16.401-42.521h11.603l16.461,42.521H405.21l-2.552-7.046H384.982z
			 M396.281,249.652c-1.336-3.523-2.31-6.196-2.369-6.257h-0.182c-0.062,0.061-1.033,2.673-2.369,6.196l-3.037,8.504h10.995
			L396.281,249.652z"/>
		<path fill="#070606" d="M452.535,274.436c0-2.43,0.061-2.673,0.061-2.977h-0.121c-2.431,2.065-7.047,3.827-11.967,3.827
			c-11.846,0-21.869-8.93-21.869-22.172c0-13,9.355-22.05,22.052-22.05c9.657,0,17.068,5.346,19.803,12.271l-10.084,2.733
			c-1.641-2.733-4.799-5.406-10.205-5.406c-6.863,0-11.299,5.103-11.299,12.514c0,7.532,4.921,12.453,12.453,12.453
			c5.832,0,9.477-2.551,10.812-4.374v-2.005h-10.691v-9.476h20.169v24.663L452.535,274.436L452.535,274.436z"/>
		<path fill="#070606" d="M506.237,255.483c0,12.817-7.411,19.803-18.527,19.803c-11.177,0-18.527-6.986-18.527-19.803v-23.569
			h10.327v23.265c0,7.29,2.794,10.448,8.322,10.448c5.467,0,8.322-3.159,8.322-10.448v-23.265h10.083V255.483L506.237,255.483z"/>
		<path fill="#070606" d="M522.338,267.39l-2.552,7.046h-10.752l16.4-42.521h11.604l16.462,42.521h-10.934l-2.554-7.046H522.338z
			 M533.637,249.652c-1.337-3.523-2.309-6.196-2.369-6.257h-0.183c-0.062,0.061-1.032,2.673-2.369,6.196l-3.037,8.504h10.995
			L533.637,249.652z"/>
		<path fill="#070606" d="M574.278,260.404h-2.126h-2.431v14.032h-10.205v-42.521h16.158c10.691,0,16.947,5.588,16.947,14.396
			c0,5.832-2.854,10.145-8.018,12.088l9.719,16.037h-12.088L574.278,260.404z M576.344,252.264c3.767,0,5.832-1.883,5.832-5.467
			c0-3.523-1.943-5.649-5.893-5.649h-6.562v11.117L576.344,252.264L576.344,252.264z"/>
	</g>
</g>
<g>
	<path fill="#0079C6" d="M365.605,298.376v33.045H355.4v-33.045h-13V288.9h36.203v9.476H365.605L365.605,298.376z"/>
	<path fill="#0079C6" d="M385.715,288.901h30.98v9.476H395.92v7.29h15.309v8.503H395.92v7.775h21.078v9.477h-31.283V288.901
		L385.715,288.901z"/>
	<path fill="#0079C6" d="M464.078,318.848c-3.158,8.262-10.994,13.426-20.229,13.426c-12.695,0-22.051-8.93-22.051-22.231
		c0-12.94,9.354-21.991,22.051-21.991c9.78,0,16.948,5.406,19.804,12.271l-10.083,2.733c-2.188-3.401-5.65-5.406-10.205-5.406
		c-6.926,0-11.299,5.103-11.299,12.514c0,7.53,4.677,12.453,11.236,12.453c5.589,0,9.053-2.916,10.752-6.439L464.078,318.848z"/>
	<path fill="#0079C6" d="M497.37,314.717h-16.341v16.705h-10.205v-42.521h10.205v16.036h16.341v-16.036h10.206v42.521H497.37
		V314.717z"/>
</g>
<g>
	<g>
		<path fill="#0079C6" d="M285.769,265.247c9.098-0.939,18.633-1.437,29.383-1.289v-41.919H198.052v9.856
			C246.511,236.837,274.196,250.544,285.769,265.247z"/>
		<path fill="#0079C6" d="M273.374,266.798c-11.295-9.887-34.535-20.554-75.322-24.877v52.651
			c16.777-16.339,50.379-23.999,72.822-27.41C271.704,267.034,272.538,266.917,273.374,266.798z"/>
	</g>
	<path fill="#0079C6" d="M236.524,323.484c25.875-5.571,44.668-16.5,52.178-29.65c3.559-6.231,4.385-12.718,2.457-18.929
		c7.459-0.624,15.313-0.938,23.992-0.812v65.048H198.051V315.12c1.178-10.392,11.877-19.702,30.312-26.93
		c3.217,12.252,13.381,15.067,15.783,13.526c2.396-1.544,0.828-4.412-0.656-8.971c-1.441-4.424-0.877-6.507-0.402-9.413
		c8.695-2.435,18.475-4.518,29.309-6.167c2.801-0.422,5.605-0.82,8.432-1.175c0.057,0.12,0.129,0.249,0.186,0.369
		c1.805,4.058,1.477,8.15-1.014,12.51c-5.998,10.503-21.867,22.285-43.477,29.265c-4.746,1.535-10.389,2.918-15.146,3.888
		c-1.828,0.394-3.461,0.483-3.381,1.485c0.088,1.154,2.039,1.519,6.943,1.261C228.774,324.566,232.036,324.452,236.524,323.484z"/>
</g>
</svg>
