<?xml version="1.0" encoding="utf-8"?>
<!-- Generator: Adobe Illustrator 27.0.0, SVG Export Plug-In . SVG Version: 6.00 Build 0)  -->
<svg version="1.0" id="Layer_1" xmlns="http://www.w3.org/2000/svg" xmlns:xlink="http://www.w3.org/1999/xlink" x="0px" y="0px"
	 viewBox="0 0 274.4 212" style="enable-background:new 0 0 274.4 212;" xml:space="preserve">
<style type="text/css">
	.st0{fill:#FEFEFE;}
	.st1{fill:#010101;}
	.st2{fill:#D7292A;}
	.st3{fill:#060606;}
	.st4{fill:#BB9896;}
	.st5{fill:#A5A3A9;}
	.st6{fill:#060505;}
	.st7{fill:#CF2D32;}
	.st8{fill:#D22E30;}
	.st9{fill:#CC3C40;}
	.st10{fill:#B6ACAA;}
	.st11{fill:#C2BCC1;}
	.st12{fill:#141314;}
	.st13{fill:#141414;}
	.st14{fill:#D2C8C8;}
	.st15{fill:#151515;}
	.st16{fill:#1B1B1B;}
	.st17{fill:#0F0C0D;}
	.st18{fill:#94848A;}
	.st19{fill:#A2454E;}
	.st20{fill:#141011;}
	.st21{fill:#A49B9C;}
	.st22{fill:#711D1D;}
	.st23{fill:#BD3A37;}
	.st24{fill:#C2C9CC;}
	.st25{fill:#CC3941;}
	.st26{fill:#947A84;}
	.st27{fill:#B64048;}
	.st28{fill:#ADB4B4;}
	.st29{fill:#937075;}
	.st30{fill:#9FABAD;}
	.st31{fill:#DB2C2D;}
	.st32{fill:#CD2D33;}
	.st33{fill:#373737;}
	.st34{fill:#CE3132;}
	.st35{fill:#973034;}
	.st36{fill:#0D0D0D;}
	.st37{fill:#A2A4AA;}
	.st38{fill:#0B0B0B;}
	.st39{fill:#D72C33;}
	.st40{fill:#ABA2A3;}
	.st41{fill:#BCACAF;}
	.st42{fill:#C32E30;}
	.st43{fill:#A6A2A6;}
	.st44{fill:#DBAAA7;}
	.st45{fill:#181818;}
	.st46{fill:#313131;}
	.st47{fill:#C03B3D;}
	.st48{fill:#A49695;}
	.st49{fill:#CF2D31;}
	.st50{fill:#222222;}
	.st51{fill:#AC3032;}
	.st52{fill:#97A1A8;}
	.st53{fill:#C12A34;}
	.st54{fill:#AF303A;}
	.st55{fill:#AC302F;}
	.st56{fill:#626262;}
	.st57{fill:#AD353C;}
	.st58{fill:#BE3941;}
	.st59{fill:#282828;}
	.st60{fill:#A6A1A3;}
	.st61{fill:#B6222F;}
	.st62{fill:#DBD6E2;}
	.st63{fill:#C03D43;}
	.st64{fill:#707070;}
	.st65{fill:#606060;}
	.st66{fill:#3F3F3F;}
	.st67{fill:#BC3F45;}
	.st68{fill:#363636;}
	.st69{fill:#9B484D;}
	.st70{fill:#BB7978;}
	.st71{fill:#DF2D31;}
	.st72{fill:#9E7F84;}
	.st73{fill:#CF3339;}
	.st74{fill:#B9B9B9;}
	.st75{fill:#6E8889;}
	.st76{fill:#B53739;}
	.st77{fill:#ADA7B2;}
	.st78{fill:#BA313D;}
	.st79{fill:#414141;}
	.st80{fill:#060205;}
	.st81{fill:#BA3E48;}
	.st82{fill:#C73339;}
	.st83{fill:#BE8A8C;}
	.st84{fill:#DA2A2C;}
	.st85{fill:#474747;}
	.st86{fill:#616161;}
	.st87{fill:#D99BA0;}
	.st88{fill:#F7EFEB;}
	.st89{fill:#8C4E55;}
	.st90{fill:#CA484B;}
	.st91{fill:#B73F3D;}
	.st92{fill:#080808;}
	.st93{fill:#C2393C;}
	.st94{fill:#494949;}
	.st95{fill:#CA3940;}
	.st96{fill:#969BA1;}
	.st97{fill:#A12C28;}
	.st98{fill:#F8F8F8;}
	.st99{fill:#7C7C7C;}
	.st100{fill:#686868;}
	.st101{fill:#7E7E7E;}
	.st102{fill:#97ADAD;}
	.st103{fill:#CCB9C1;}
	.st104{fill:#AB343A;}
	.st105{fill:#A82D37;}
	.st106{fill:#070506;}
	.st107{fill:#B14A4C;}
	.st108{fill:#B73C44;}
	.st109{fill:#BABABA;}
	.st110{fill:#EA2732;}
	.st111{fill:#993B43;}
	.st112{fill:#B92C28;}
	.st113{fill:#646464;}
	.st114{fill:#585858;}
	.st115{fill:#545454;}
	.st116{fill:#AE3830;}
	.st117{fill:#B23532;}
	.st118{fill:#110F10;}
	.st119{fill:#D42E32;}
	.st120{fill:#C74958;}
	.st121{fill:#D5BFB9;}
	.st122{fill:#EEBEBD;}
	.st123{fill:#EECFC8;}
	.st124{fill:#3B3B3B;}
	.st125{fill:#D03739;}
	.st126{fill:#555555;}
	.st127{fill:#9A322E;}
	.st128{fill:#595A5A;}
	.st129{fill:#090909;}
	.st130{fill:#EFDBD8;}
	.st131{fill:#984140;}
	.st132{fill:#8F2E2D;}
	.st133{fill:#D33339;}
	.st134{fill:#5C5B5B;}
	.st135{fill:#A8464B;}
	.st136{fill:#A32632;}
	.st137{fill:#282526;}
	.st138{fill:#A33630;}
	.st139{fill:#AA2A2D;}
	.st140{fill:#A6A6A6;}
	.st141{fill:#B22D32;}
	.st142{fill:#C23342;}
	.st143{fill:#A68C89;}
	.st144{fill:#BBB8B6;}
	.st145{fill:#816268;}
	.st146{fill:#86848C;}
	.st147{fill:#060000;}
	.st148{fill:#E1E1E1;}
	.st149{fill:#C33337;}
	.st150{fill:#B18986;}
	.st151{fill:#0E0808;}
	.st152{fill:#7E383E;}
	.st153{fill:#ACB7B9;}
	.st154{fill:#F0F0F0;}
	.st155{fill:#BF9D9B;}
	.st156{fill:#DA282C;}
	.st157{fill:#D8282B;}
	.st158{fill:#BF3036;}
	.st159{fill:#DC282C;}
	.st160{fill:#DF282C;}
	.st161{fill:#D22B25;}
	.st162{fill:#D52926;}
	.st163{fill:#E0292E;}
	.st164{fill:#E7282D;}
	.st165{fill:#E32933;}
	.st166{fill:#E32A34;}
	.st167{fill:#D02C2A;}
	.st168{fill:#D63039;}
	.st169{fill:#E3282F;}
	.st170{fill:#DF2A34;}
	.st171{fill:#DF292A;}
	.st172{fill:#D22B2A;}
	.st173{fill:#84787F;}
	.st174{fill:#DC2B2A;}
	.st175{fill:#E02828;}
	.st176{fill:#BE2C2B;}
	.st177{fill:#CC2C22;}
	.st178{fill:#BE2F3B;}
	.st179{fill:#DA2C32;}
	.st180{fill:#CC2C24;}
	.st181{fill:#E9282F;}
	.st182{fill:#C82C25;}
	.st183{fill:#DF2A2F;}
	.st184{fill:#EA2B2E;}
	.st185{fill:#E8292B;}
	.st186{fill:#DE292F;}
	.st187{fill:#E42939;}
	.st188{fill:#C2272C;}
	.st189{fill:#A2292F;}
	.st190{fill:#781E23;}
	.st191{fill:#823032;}
	.st192{fill:#9B5657;}
	.st193{fill:#C83133;}
	.st194{fill:#868E87;}
	.st195{fill:#C43335;}
	.st196{fill:#6A7D7C;}
	.st197{fill:#8B6869;}
	.st198{fill:#C82D29;}
	.st199{fill:#D72B2E;}
	.st200{fill:#D72A25;}
	.st201{fill:#936D6E;}
	.st202{fill:#E62A2C;}
	.st203{fill:#BB494A;}
	.st204{fill:#9A312D;}
	.st205{fill:#8C7F85;}
	.st206{fill:#E52A2A;}
	.st207{fill:#C83D47;}
	.st208{fill:#E3B8B0;}
	.st209{fill:#8D2C2B;}
	.st210{fill:#C43229;}
	.st211{fill:#D82A27;}
	.st212{fill:#D32C2E;}
	.st213{fill:#DA2A32;}
	.st214{fill:#DB262C;}
	.st215{fill:#BF2A30;}
	.st216{fill:#8C868C;}
	.st217{fill:#7F8482;}
	.st218{fill:#C72F3B;}
	.st219{fill:#948E91;}
	.st220{fill:#90939A;}
	.st221{fill:#101111;}
	.st222{fill:#0E0E0E;}
	.st223{fill:#0F0F0F;}
	.st224{fill:#F1EFF0;}
	.st225{fill:#2C2B2B;}
	.st226{fill:#0D0C0C;}
	.st227{fill:#121212;}
	.st228{fill:#C92835;}
	.st229{fill:#D12F31;}
	.st230{fill:#CF2E31;}
	.st231{fill:#EC2736;}
	.st232{fill:#DDDBDC;}
	.st233{fill:#302C2D;}
	.st234{fill:#D42D30;}
	.st235{fill:#DD2A28;}
	.st236{fill:#DA2824;}
	.st237{fill:#D72C25;}
	.st238{fill:#C52E2D;}
	.st239{fill:#D12A30;}
	.st240{fill:#6C7D7A;}
	.st241{fill:#B24247;}
	.st242{fill:#B18F91;}
	.st243{fill:#CE2C2B;}
	.st244{fill:#96646B;}
	.st245{fill:#6C7C7D;}
	.st246{fill:#9E979F;}
	.st247{fill:#DD2D32;}
	.st248{fill:#E4292D;}
	.st249{fill:#E42A30;}
	.st250{fill:#CC3639;}
	.st251{fill:#F0D0C6;}
	.st252{fill:#EC2533;}
	.st253{fill:#A19A9F;}
	.st254{fill:#DAD0D2;}
	.st255{fill:#E7C3BC;}
	.st256{fill:#A82B2D;}
	.st257{fill:#D32B29;}
	.st258{fill:#D5282F;}
	.st259{fill:#C9ACA4;}
	.st260{fill:#B43A44;}
	.st261{fill:#EA2D33;}
	.st262{fill:#CD6C6B;}
	.st263{fill:#CF2A31;}
	.st264{fill:#A62831;}
	.st265{fill:#C32B30;}
	.st266{fill:#D42A2A;}
	.st267{fill:#897280;}
	.st268{fill:#9A8B8D;}
	.st269{fill:#8D8FA4;}
	.st270{fill:#E12B34;}
	.st271{fill:#898F92;}
	.st272{fill:#7A7E78;}
	.st273{fill:#A14D3F;}
	.st274{fill:#797883;}
	.st275{fill:#A59196;}
	.st276{fill:#B1484A;}
	.st277{fill:#DD2B3F;}
	.st278{fill:#D02E2D;}
	.st279{fill:#CC333D;}
	.st280{fill:#D82C2F;}
	.st281{fill:#E12A33;}
	.st282{fill:#D43036;}
	.st283{fill:#D9ADB2;}
	.st284{fill:#8D7482;}
	.st285{fill:#D42C2D;}
	.st286{fill:#846D66;}
	.st287{fill:#DB2A2B;}
	.st288{fill:#DD2836;}
	.st289{fill:#B52537;}
	.st290{fill:#9C9C9F;}
	.st291{fill:#DF2A2B;}
	.st292{fill:#D82A23;}
	.st293{fill:#DE2C31;}
	.st294{fill:#EA2B2C;}
	.st295{fill:#C52B31;}
	.st296{fill:#E4282E;}
	.st297{fill:#D72830;}
	.st298{fill:#CA2928;}
	.st299{fill:#DE2C34;}
	.st300{fill:#C2313D;}
	.st301{fill:#AF9CA1;}
	.st302{fill:#D2292A;}
	.st303{fill:#E22A2A;}
	.st304{fill:#D92B29;}
	.st305{fill:#DB292A;}
	.st306{fill:#CF2B2D;}
	.st307{fill:#DC2B30;}
	.st308{fill:#C92B30;}
	.st309{fill:#CB2C25;}
	.st310{fill:#C92C2E;}
	.st311{fill:#E92931;}
	.st312{fill:#D72A28;}
	.st313{fill:#E92831;}
	.st314{fill:#D32924;}
	.st315{fill:#DB2630;}
	.st316{fill:#D73233;}
	.st317{fill:#E0292B;}
	.st318{fill:#CD2D2C;}
	.st319{fill:#DD292B;}
	.st320{fill:#D52A24;}
	.st321{fill:#D6272A;}
	.st322{fill:#DE2729;}
	.st323{fill:#D52922;}
	.st324{fill:#E72A29;}
	.st325{fill:#BF3020;}
	.st326{fill:#CE2D24;}
	.st327{fill:#D32A24;}
	.st328{fill:#DE2930;}
	.st329{fill:#DBCCCF;}
	.st330{fill:#7B8884;}
	.st331{fill:#D72924;}
	.st332{fill:#CD2D25;}
	.st333{fill:#DC282B;}
	.st334{fill:#DC292A;}
	.st335{fill:#D32A26;}
	.st336{fill:#E62733;}
	.st337{fill:#C23335;}
	.st338{fill:#B43333;}
	.st339{fill:#968083;}
	.st340{fill:#B12831;}
	.st341{fill:#D92C34;}
	.st342{fill:#C23034;}
	.st343{fill:#E72936;}
	.st344{fill:#E02A31;}
	.st345{fill:#D52530;}
	.st346{fill:#E3272F;}
	.st347{fill:#CD2C28;}
	.st348{fill:#C65B60;}
	.st349{fill:#ED2930;}
	.st350{fill:#D22A27;}
	.st351{fill:#C73026;}
	.st352{fill:#E4272A;}
	.st353{fill:#DE2A26;}
	.st354{fill:#C14551;}
	.st355{fill:#F9F0F6;}
	.st356{fill:#DC2D33;}
	.st357{fill:#A197A0;}
	.st358{fill:#A57C7D;}
	.st359{fill:#858186;}
	.st360{fill:#999CAA;}
	.st361{fill:#A698A1;}
	.st362{fill:#DDD3C1;}
	.st363{fill:#BA404A;}
	.st364{fill:#CC2C33;}
	.st365{fill:#E42834;}
	.st366{fill:#CE2B25;}
	.st367{fill:#C72E28;}
	.st368{fill:#C52731;}
	.st369{fill:#CC2D2C;}
	.st370{fill:#F3F1F4;}
	.st371{fill:#E1292B;}
	.st372{fill:#AA3437;}
	.st373{fill:#EC292B;}
	.st374{fill:#CB2C29;}
	.st375{fill:#E9BBBB;}
	.st376{fill:#E82A2B;}
	.st377{fill:#E42B28;}
	.st378{fill:#ED2C33;}
	.st379{fill:#EA292B;}
	.st380{fill:#CC2E27;}
	.st381{fill:#E62831;}
	.st382{fill:#E42829;}
	.st383{fill:#C82E2C;}
	.st384{fill:#DB2827;}
	.st385{fill:#E6F6F2;}
	.st386{fill:#E7C5C2;}
	.st387{fill:#DE2C26;}
	.st388{fill:#B22A30;}
	.st389{fill:#D2E1E2;}
	.st390{fill:#D3CED7;}
	.st391{fill:#CED0D5;}
	.st392{fill:#A5B1BA;}
	.st393{fill:#ECF6EF;}
	.st394{fill:#F3EAED;}
	.st395{fill:#FDEDEE;}
</style>
<g>
	<g>
		<path class="st0" d="M137.3,179.3c-49.8,0-99.6,0-149.5,0.1c-2.7,0-3.8-0.1-3.7-3.4c0.1-47,0.1-94.1,0-141.1
			c0-2.7,0.6-3.3,3.3-3.3c99.8,0.1,199.6,0.1,299.4,0c3.1,0,3.5,0.8,3.5,3.6c-0.1,46.9-0.1,93.8,0,140.7c0,3-0.6,3.6-3.6,3.6
			C236.9,179.3,187.1,179.3,137.3,179.3z"/>
		<path class="st1" d="M81.8,70.7c0.6,0,1.2,0.1,1.8,0.1c2.2,0.6,1.4,4.9,4.8,4.1c2.7-0.7,0.8-3.7,2.4-5.1c0.7-0.6,1.1-1.7,1.4-2.7
			l0,0c1.6,0,3.7-2.6,4.8,0.8c-0.3,0.9-0.3,2-0.7,2.9c-1.1,3.9-3.7,7-5.3,10.7c-3.4,2.1-5.9,4.7-4.9,9.1c-0.2,0.8-0.6,1.5-1.3,2.1
			c-0.4,0.2-0.8,0.1-1.1-0.2c-1.2-0.6-1.9-1.6-2.1-3.1c0,1.7,1.1,2.5,2.2,3.2c0.5,2.6-2.1,4.5-1.7,7c-0.2,1.3-0.7,2.6-1.1,3.9
			c-2.5,7.8-13.5,12.4-21.1,8.9c-0.7-1-0.9-2.1-1.2-3.2c-0.2-0.6-0.2-1.3-0.1-2c0.3-1.4,0.6-2.9,0.6-4.4c0.1-2.1,0.8-4,1.6-6
			c0.1-0.4,0.3-0.7,0.4-1.1c0.6-1.4,0.8-2.7,0.1-4.1c-0.3-0.4-0.6-0.9-0.9-1.3c-0.4-0.6-0.7-1.2-1.1-1.9c-0.5-0.8-1.1-1.5-1.5-2.3
			c-0.2-0.4-0.3-0.7-0.4-1.1c-0.4-5.1-0.1-5.6,4.9-5.1c1,0.1,1.9-0.2,2.9-0.3c1.1-0.1,2,0.3,2.9,0.9c0.8,0.6,1.4,1.3,2.1,1.9
			c2.9-1.2,3.1-1.7,1.5-4.7c-0.3-0.3-0.5-0.6-0.7-1c-0.3-1.1,0.1-2,0.9-2.8c0.8-0.7,1.7-1.1,2.7-1.6c1-0.4,2-0.7,3-0.4
			c1.2,0.6,2.8,0.6,3.5,2.4C81,72.9,80.8,71.6,81.8,70.7z"/>
		<path class="st2" d="M102.7,132.4c1.2,0.3,1.1,1.7,1.8,2.4c0.4,0.7,1.3,1,1.1,2c-0.3,0.6-0.7,1-1.3,1.3c-0.6,0.2-1.2,0.1-1.8-0.1
			c-1.6-1.7-3.7-2.1-5.9-1.6c-1.3,0-2.2-1.2-3.6-1.5c1.3,1.9,2.4,3.3,4.8,2.2c0.8-0.2,1.6-0.2,2.4,0.1c4,2.2,2.3,6.6,3.7,9.8
			c-0.3,1-1,1.7-1.6,2.4c-0.3,0.3-0.8,0.7-0.6,1c2,3.8,2,3.8-2.4,3.8c-1.8-0.6-3.6-0.3-5.4-0.3c-1.4-0.6-2.7-1.3-2.5-3.2
			c1.1-0.3,2.2-0.6,2.7-0.3c-1-0.3-2.8,0.3-4.3-0.7c-0.7-0.5-1.2-1.2-1.3-2.1c0-1.4,0.4-2.7,1.3-3.9c0.9-1.2,0.9-2.3-0.4-3.2
			c-2.1-1.8-3.9,0.8-5.9,0.5c-3.7-1.2-5.2-4.5-7.4-7.2c-0.1-0.6-0.1-1.2,0.1-1.8c0.6-1,2-0.8,2.6-1.7c0.7-0.9,0.1-1.6-0.4-2.3
			c-0.8-1.1-1-2.4-1-3.7c0-2-0.1-4.1,2.5-4.9c2.4-0.7,2.9,1.2,3.8,2.6c1.4,2.1,3.4,3.6,5.8,2.4c2.3-1.1,3.8-0.1,5.6,0.6
			c1.4,0.4,2.1,1.6,2.8,2.8c0.1,1.6,1.1,2.6,2.5,3.1C101.2,131.3,102.1,131.7,102.7,132.4z"/>
		<path class="st2" d="M96.9,75.1c0.5,0,1,0.1,1.5,0.1c1,0.5,1.6,1.1,1.2,2.4c-0.2,0.3-0.5,0.6-0.8,0.8c-1,0.5-1.9,1.1-2.3,2.3
			c0,1.6-0.8,3.9,2.4,2.7c0.6-0.7,0.8-1.6,1.3-2.4c0.3-0.2,0.7-0.4,1.1-0.4c0.6-0.1,1.2,0.1,1.7,0.3c1.6,1.1,2.7,2.8,4.7,3.4
			c1.2,1.2,2.3,2.5,1.6,4.3c-2.3,0.7-2.3,2.4-2.1,4.4c0.2,1.6,0.7,3.1,1.3,4.6c0.2,0.6,0.2,1.2,0,1.8c-0.3,0.6-0.7,1-1.3,1.2
			c-2-0.1-2,1-1.5,2.4c-0.2,1.4-1.1,2.5-1.8,3.6c-0.3,0.2-0.7,0.4-1,0.6c-1.7,0.3-3.3,1.2-5,1.4c-1.3-0.5-1.1,0.4-1,1.1
			c-1.3,1.5-3.2,1.6-5,1.9c-0.6,0-1.3-0.1-1.8-0.4c-0.3-0.2-0.5-0.6-0.6-1c-0.1-1.2,2.4-1.2,1.3-2.9c-0.7-2.9,0.5-5.9-0.3-8.1
			c0.1,0.1,0.1,0.9-0.3,1.7c-2.6,0.9,0.2,1.9,0,2.9c-1,2.4-2.5,2-4.2,0.8c-0.8-1.3-0.9-2.8-1.7-4.1c-0.1-1.9,1.2-3.6,1-5.5
			C87.6,87.4,91.9,81,96.9,75.1z"/>
		<path class="st3" d="M65.3,80.3c-1,0.3-2.1,1.1-2.8,0.8c-5.4-2.1-4.5,1.4-4.2,4.5c-0.4,0.3-0.8,0.3-1.2,0.1
			c-2.7-2-3.2-5.3-4.8-7.9c-0.9-1.8-1.4-3.6-0.8-5.6c0.3-0.7,0.8-1,1.4-1.2c3.6-4,6.7-8.8,11.7-11.3c2.6-1.3,0.2-3.1,1.1-4.6
			c4.3,2.5,5.4,7.6,9.1,10.4c-0.3,3.5-1.8,4.8-4.1,3.3c-1.6-1-2.1-3.8-4.7-3c-1.9,0.6-2,3-3.5,4.2c-0.4,0.4-0.8,0.9-1.2,1.3
			c-1.4,1.6-2.3,3.1-0.3,4.9c1.1,1,2.5,1.7,3.7,2.6C65.2,79.2,65.6,79.7,65.3,80.3z"/>
		<path class="st4" d="M91.8,156.8c-7.3-9.1-14.6-18.2-22-27.1c-1.9-2.3-4.3-4.3-6.8-5.9c-2.9-1.9-3.5,0.4-3.5,2.7
			c0,5.7,0.1,11.5,0.1,17.2c0,1.7-0.2,3.4-0.3,5.2c-1.9,0.5-2.1-1-2.7-2.1c-0.7-7-0.4-14-0.2-21c0.7-2.8,2.5-4.6,5.4-5.1
			c2.1-0.2,3.6,1.2,5.1,2.3c0.3,0.3,0.6,0.6,0.8,0.9c0.9,1.7,2.4,2.9,3.9,4.1c1.2,1.5,2.4,2.9,3.9,4c0.4,0.5,0.6,1,0.7,1.6
			c5,6.3,10.5,12.3,15.2,18.9c0.7,1,1.7,1.9,2.1,3.2c0.1,0.4,0.1,0.8-0.1,1.2C92.9,157.2,92.3,157.3,91.8,156.8z"/>
		<path class="st5" d="M70.7,153.4c0.7,1.1,1.8,2,2.1,3.2c0.7,2.4,0.2,4.4-2.9,4.4c-15.9,0-31.8,0-47.8,0c-3,0-3.1-2-3-4.1
			c0.6-0.6,1.3-0.6,2-0.3c0.4,0.3,0.8,0.5,1.2,0.9c1.2,0.8,2.5,0.7,3.8,0.7c13.2,0,26.4,0,39.6,0c1.1,0,2.3,0.2,3.3-0.7
			c0.2-0.4,0.3-0.8,0.4-1.2C69.6,155.2,69.6,154,70.7,153.4z"/>
		<path class="st6" d="M96.6,68.1c-1-2.8-3.3,0.8-4.5-1c0.2-0.8,0.1-1.9,0.6-2.5c4.4-5.6,4.9-12.8,7.4-19.2c2.3-0.3,0.7,2.1,1.8,2.7
			c2,2.4,2,4.6,0.4,7.4c-2.4,4-2,9.2-4.8,13.1C97.1,68.6,96.8,68.4,96.6,68.1z"/>
		<path class="st7" d="M30.3,149.6c0.3-0.2,0.6-0.4,0.9-0.7c2.4-1.2,1-3.5,1.4-5.3c0-18.2,0-36.5,0-54.7c0-1.6,0.3-3.2-0.4-4.7
			c-0.8-1.1-1.4-2.4-1.8-3.7c-0.4-2-2.2-2.4-3.7-3.1c-0.3-0.2-0.6-0.5-0.8-0.8c-0.1-0.4,0.1-0.8,0.3-1.1c0.4-0.2,0.7-0.4,1.1-0.5
			c0.9-0.1,1.7,0,2.5,0.3c1.2,0.5,2.4,1.1,3.5,2c2.6,2.4,2.9,5.4,2.5,8.7c-0.7,15.1-0.7,30.2-0.6,45.2c0,2.2-0.2,4.3,0.3,6.4
			c0.5,2,0.5,3.9,0.3,5.9c-0.1,0.5-0.2,1-0.3,1.4c-1,2.5,0.2,7-5.1,5.8C30,150.5,30,150.1,30.3,149.6z"/>
		<path class="st8" d="M195.4,128c-0.1-0.2-0.1-0.5,0-0.7c0.6-0.9-0.2-2.2,0.8-3.1c2.1-1,1.1-4.1,3.3-5.1c0.8,0,1.3,0.5,1.4,1.3
			c0-1.2-1-2-1-3.1c0.3-2,1.7-2.2,3.3-1.9c0.4,0.1,0.7,0.4,1,0.7c0.3,0.5,0.4,1.1,0.4,1.7c0.3,5.8,0.3,5.8,5.7,7.3
			c0.6,0.3,1,0.8,1.1,1.5c-0.1,1-0.6,1.7-1.4,2.2c-4.5,1.8-9,2.8-13.5,0.3C196,128.6,195.7,128.3,195.4,128z"/>
		<path class="st9" d="M243.1,82.1c2.3-1.3,3-0.8,3.6,1.9c1.4,7.1,0.5,14.1,0.8,21.2c0.2,4.2,0.2,8.4,0,12.6c-0.1,3.5,0,6.8,2.8,9.4
			c0,2.2-1.6,1.7-2.9,1.6c-1.6-0.6-1.1-2.2-1.8-3.3c-0.5-1-0.8-2.1-0.9-3.3c-0.1-1.9-0.1-3.9-0.1-5.8c0.1-9.9-0.1-19.9,0-29.8
			c0-1.4-0.2-2.6-1.5-3.5C242.8,82.7,242.8,82.4,243.1,82.1z"/>
		<path class="st10" d="M149,106.5c7,8.5,6.3,15.2-2.7,23.7c-5.3,5.1-18,5.3-23.5,0.5c0.5-0.5,1.1-0.7,1.8-0.7
			c2.1,0.4,3.9,1.4,6,1.7c1.7,0.5,3.5,0.6,5.2,0c0.8-0.2,1.5-0.4,2.3-0.5c6-1.6,9.7-5.5,12-11.2c1.1-2.9-0.2-4.9-0.8-7.3
			c-0.3-1.1-0.5-2.3-0.8-3.4c-0.1-0.4-0.2-0.8-0.2-1.2C148.3,107.5,148.4,106.9,149,106.5z"/>
		<path class="st11" d="M32,82.9c1.2,1.8,1,3.9,1,5.9c0,18.9,0,37.8,0,56.7c-0.1,0.4-0.3,0.4-0.6,0.1c-0.1-18.3-0.1-36.7-0.2-55
			c0-6.7-0.9-7.8-7.9-8.5c-4-0.4-5.8-2.2-5.2-6.2c0.4-0.2,0.8-0.2,1.1,0c0.3,0.3,0.5,0.6,0.7,1c2.1,3.6,6.5,2.3,9.4,4.3
			C31.1,81.6,31.7,82.1,32,82.9z"/>
		<path class="st12" d="M159.5,84.7c-0.7,1.1-1.9,0.7-2.7,0.6c-2.8-0.4-3.7,0.6-3.6,3.5c0.1,3.4,2.6,2.7,4.4,2.9
			c1,0.1,2.5-0.8,2.5,0.8c0,1.4-1.6,0.8-2.5,0.8c-6.8,0.3-6.8,0.3-6.8-6.7c0-1.3,0-2.6,0-3.9c0-7,0-7,6.8-6.6c1,0.1,2.6-0.7,2.7,1.2
			c0,1.8-1.6,1.2-2.6,1.3c-5.1,0.3-5.1,0.3-3.3,4.5c0.7,1.2,1.9,0.4,2.8,0.6C157.9,83.9,158.9,83.7,159.5,84.7z"/>
		<path class="st13" d="M219.2,91.7c-0.9,3.1-3.4,1-5,1.5c-3.4,0.9-4.6-0.7-4.2-4.1c0.3-2.3,0.1-4.6,0.1-6.9c0-6.2,2-7.7,8.2-6.2
			c0.8,0.2,1.3,0.3,1.3,1.3c0,0.9-0.6,1.2-1.4,1.2c-1.2,0-2.3,0-3.5,0c-1.2,0-2.3-0.1-2.3,1.7c0,1.4,0.2,2.6,2,2.6
			c1.4,0,2.8,0.2,4.3,0.3c0.8,1.2,0.2,1.8-1,2c-1.5,0.2-3.1,0-4.6,0.1c-2.3,1.4-1.3,3.4-1,5.2C214.2,92.2,217,90.5,219.2,91.7z"/>
		<path class="st14" d="M61.3,70.1c0.9-1.1,2.1-1.9,2.4-3.4c0.3-1.5,1-3,2.7-2.7c1.3,0.2,3.3,0.1,3.6,2.3c0.2,1.3,1,2.5,2.6,2.4
			c1.8-0.2,2.1-1.6,2.3-3.1c0.3,0.6,1,1.4,0.8,1.8c-1,2.6,0.9,3.2,2.6,4c-0.1,0.2-0.2,0.4-0.3,0.6c-1.2,0.1-2.3,0.2-3.4,0.5
			c-1,0.2-1.9,0.4-2.9,0.3c-2,0-4,0-6,0C63.7,72.7,61.9,72.3,61.3,70.1z"/>
		<path class="st15" d="M135,62.9c-1.8,4.5-1.6,5,3.2,5.6c0.9,0.1,1.8,0,1.8,1.3c0,1.2-0.6,1.3-1.6,1.5c-5.8,1-7,0.2-6.7-5.5
			c0.2-3.9-1.2-7.9,0.8-11.7c0.9,1.3,0.1,2.8,0.3,3.6c0.2-3,2.1-3.6,7.6-1.7c-1.3,1-2.8,0.5-4.1,0.5c-1.8,0-2.1,0.8-2.1,2.3
			c0,1.7,1,1.8,2.2,1.7c1.1,0,2.3-0.2,3.4,0c1.3,0.3,1.9,1.1,0.6,2.2C138.5,61.9,136.7,61.5,135,62.9z"/>
		<path class="st16" d="M199.6,76.8c2-0.2,3.6,0.4,4.1,2.7c-0.4,0.4-0.9,0.7-1.5,0.7c-0.4,0-0.8,0-1.1-0.1c-0.7-0.2-1.3-0.5-2.1-0.6
			c-2.7,2.7-0.1,3.7,1.6,5.1c0.2,0.4,0.1,0.8-0.2,1.1c0.2,2,1.5,3.3,2.6,4.7c0.4,0.6,1.2,1.1,0.6,1.8c-0.6,0.6-2,0.6-2.2-0.2
			c-0.5-1.9-3.1-2.4-2.8-4.7c-2.3,0.1-1,1.9-1.3,2.8c-0.3,1,0.3,2.6-1.4,2.5c-1.5,0-1.2-1.4-1.2-2.3c0.1-4.5-0.4-9.1,0.3-13.6
			C196.6,76.2,198.1,76.2,199.6,76.8z"/>
		<path class="st17" d="M183.9,85.7c0-1.4-0.1-2.9,0-4.3c0.1-1.7,0.1-3.2-2.4-2.9c-0.9,0.1-1.8,0-1.8-1.2c0-1.3,1-1.2,1.8-1.2
			c2.5,0,4.9,0,7.4,0c0.7,0,1.5,0,1.6,1c0.1,1.2-0.6,1.6-1.6,1.5c-2.7-0.4-2.6,1.3-2.6,3.1c0.1,2.9,0.1,5.8,0,8.7
			c0,1.1,0.8,3-1.3,2.9c-1.8,0-1-1.7-1.1-2.7C183.8,88.9,183.9,87.3,183.9,85.7z"/>
		<path class="st15" d="M123.4,76c0.9,0,1.8-0.1,2.6,0c1,0.1,2.6-0.7,2.7,1.2c0.1,1.5-1.3,1.3-2.2,1.3c-2-0.2-2,1-2,2.4
			c0,3,0.1,6.1,0,9.1c0,1.1,0.9,3.1-1.1,3.1c-2.3,0-1.3-2.1-1.3-3.3c-0.2-3-0.1-6.1,0-9.1c0-1.2,0.1-2.3-1.7-2.2
			c-1.1,0.1-2.6,0.4-2.4-1.5c0.2-1.5,1.6-0.9,2.5-0.9C121.4,75.9,122.4,76,123.4,76z"/>
		<path class="st18" d="M246.6,128c1.3,0.1,2.7,0.3,3.7-0.9c0.2,0.6,0.5,1.2,0.7,1.9c1.1,1.9,0.4,3.2-1.6,3.4c-4,0.3-8.1,0.3-12.1,0
			c-2.9-0.2-2.8-1.9-1.4-3.9c0.4-0.4,0.8-0.7,1.3-0.9c2.2-0.8,4.5-0.5,6.8-0.5C244.9,127,245.9,127.2,246.6,128z"/>
		<path class="st19" d="M20.9,156.9c-0.6,0-1.2,0-1.7,0c-0.7-0.4-1-1-0.8-1.8c2.6-0.8,5.4-0.1,8-0.3c3,0,6,0,9,0c0.5,0,1,0,1.5,0
			c10,0,20.1,0.2,30.1-0.1c1.2-0.8,0.1-1.3-0.2-2c-0.1-0.4-0.1-0.7,0.2-0.9c1.5,0,3.5-1,3.7,1.8c-0.1,1.1-0.2,2.3-0.2,3.4
			c-1.4,1.3-3.2,1.2-4.9,1.2c-13.2,0-26.4,0-39.6,0C24.1,158,22.3,158.1,20.9,156.9z"/>
		<path class="st20" d="M167.4,83.8c1.1-2.3,1.8-6.5,3.5-6.5c2.7,0,2.3,4.2,3.6,6.4c1.6,2.6,3.1,5.4,3.2,8.9c-2.5-0.3-2-3.5-4.3-3.5
			c-1.7,0-3.5,0-5.2-0.1c-2.2-0.3-0.7-1.2-0.4-2c1.1-1.4,3.7,0.3,4.3-2.1c-0.9-2.4-1.9-0.9-3-0.1C168.3,85.1,167.7,84.6,167.4,83.8z
			"/>
		<path class="st21" d="M223.2,105.5c2.6,1.8,2.5,4.5,2.6,7.2c0.2,4.3-0.9,8.7,1.5,12.8c-2.4,1.4-4.4,0-4.7-2
			C221.7,117.5,220.6,111.4,223.2,105.5z"/>
		<path class="st22" d="M96.9,75.1c-3,5.1-6,10.1-8.9,15.2c-0.8,1.5-1.2,3.2-1.8,4.7c-0.9,1.2-0.2,3.5-2.5,3.8
			c-0.8-0.5-1.1-1.2-1.3-2c0.4-1.6,1.2-3,2.1-4.3c0.3-0.6,0.6-1.2,0.9-1.8c1.2-2.9,1.3-6.5,4.4-8.4c2.7-2.1,3-5.9,5.7-8
			c0.3-0.3,0.7-0.4,1.1-0.2C96.6,74.4,96.7,74.7,96.9,75.1z"/>
		<path class="st23" d="M223.2,105.5c-0.1,5.1-0.1,10.3-0.2,15.4c0,2.8,1.1,4.7,4.3,4.6c0.1,0.3,0.3,0.5,0.4,0.8
			c0,0.9-0.5,1.3-1.3,1.5c-4,0-5.3-2.8-6.1-6c-0.4-1.8-0.1-3.7-0.6-5.5c-0.3-1.5,0.2-3,0.3-4.5c0-1.5,0.5-3.1,0.3-4.6
			c-0.5-1.6-1.1-3.3-1.2-5c0-0.6,0.3-1.1,1-1.2C222.3,101.8,222.4,103.9,223.2,105.5z"/>
		<path class="st24" d="M237,128.3c-1.9,2-2.4,3.4,1.3,3.3c3.3-0.1,6.6-0.1,9.9,0c2,0,3-0.6,2.8-2.7c1.1,0,2.2,0.3,2,1.6
			c-0.1,1.3-1.1,2.2-2.3,2.3c-6,0.3-12.1,1.3-18-0.6c-1.6-2.3,0-3.6,1.7-4.7C235.5,127.3,236.4,127.3,237,128.3z"/>
		<path class="st25" d="M158.4,105.6c-2.6-0.6-2.1-3.9-4.4-5c-0.8-0.4,0.1-2.4,0.7-2.4c5.4,0.2,11-1.6,16.3,0.9
			c0,1.6-0.7,2.4-2.3,2.4c-3.3-1.7-6.7-1.2-10.1-0.3c-0.2,1.3,0.9,2.3,0.5,3.6C159,105.1,158.8,105.4,158.4,105.6z"/>
		<path class="st26" d="M108.9,107.1c-4.1,4.4-8.2,8.8-14.8,8.9c-0.2-0.3-0.3-0.7-0.2-1.1c2.8-2,5.8-3.6,8.6-5.6
			c1.1-0.7,3.2-1.1,2.4-3.3c-0.2-2,1.5-3,2.4-4.5c0.7-0.7,1.3-1.7,2.6-1.6c1,0.3,1.3,1,1.2,2C110.4,103.6,109.8,105.4,108.9,107.1z"
			/>
		<path class="st27" d="M237,128.3c-0.9,0-1.8,0-2.7-0.1c-0.9,0.3-1.8,0.7-2.5-0.4c0-0.3-0.1-0.8,0-0.8c5.6-2.1,4.2-6.9,4.2-11.1
			c0-8.7,0-17.3-0.1-26c-0.5-0.9-0.7-1.8-0.1-2.7c0.5-0.2,1-0.1,1.4,0.2c0.5,0.6,0.7,1.3,0.8,2.1c0.2,10.5,0,21,0.1,31.4
			c0,1.9-0.2,3.7-0.7,5.5c-0.1,0.5-0.2,1-0.5,1.4L237,128.3z"/>
		<path class="st28" d="M130.8,153.3c1.1,1.8,3.1,3.3,2,5.7c-1.3,2.7-3.9,2-6.1,2c-8.8,0-17.6,0-26.4,0c-1.5,0-3.2,0.6-4.5-0.8
			c1.5-1.6,3.5-1.2,5.3-1.2c9-0.1,18,0,27-0.1c1.2-0.1,2-0.6,1.9-2c-0.1-0.3-0.1-0.7-0.1-1c0-0.7,0-1.4,0.3-2
			C130.2,153.6,130.5,153.4,130.8,153.3z"/>
		<path class="st29" d="M197.8,114.2c0.8-2.7-2.8-4.2-2-6.9c0.3-0.3,0.6-0.4,1.1-0.4c1.7,0.3,3.2,1.5,5,0.6c0.7-0.3,1.4-0.7,2.1-1.1
			c0.9-0.3,1.7-0.5,2.3,0.5c0.6,1.6,0.6,3.2-0.1,4.7C203.8,113.9,201.2,115.2,197.8,114.2z"/>
		<path class="st30" d="M228.4,132.5c-3.7,3.2-7.6,1.8-11.3,0.1c-2.1-1-3.6-1.1-5.6,0.2c-3.2,2-6.8,1.9-10.3,0.6
			c1.5-1.7,3.8-0.8,5.5-1.6c1.6-0.5,3.1-1.3,4.7-2c1.2-0.5,2.4-0.9,3.8-0.8c1.1,0.1,2.1,0.5,3,1.1c2.2,1.8,4.6,2,7.3,1.5
			C226.5,131.5,227.6,131.5,228.4,132.5z"/>
		<path class="st31" d="M163.9,135c0.3,0,0.5,0.1,0.8,0.2c0.5,0.5,0.5,1,0.3,1.6c-2.5,0.7,0.6,1.4,0,2.1c-0.3,1.4-1.1,2-2.5,1.8
			c-1-1.5-1.9-0.5-2.8,0.2c-1.4,0.3-2.5-0.2-3.2-1.4c-0.9-2.1-1.5-4.1,0.1-6.1C159.5,131.9,161.6,133.6,163.9,135z"/>
		<path class="st32" d="M205.5,106.3c-0.5,0.3-1.1,0.7-1.6,1c-0.3-0.2-0.6-0.5-0.8-0.8c-0.7-2.1-2.5-1.4-4-1.5c-1-0.2-1.6-1-2.3-1.7
			c-0.2-0.3-0.3-0.7-0.3-1.1c0.3-1,1.3-1.4,2-1.9l-0.1-0.3c0.6-0.3,0.9-1.3,1.9-0.9c0.8,0.3,1.5,0.2,1.9-0.6
			c0.9-0.8,1.9-0.4,2.9-0.4c0.4,0.1,0.7,0.4,0.9,0.7c0.1,0.4,0.2,0.8,0.2,1.2c0,0.4-0.1,0.8-0.2,1.1
			C205.5,102.9,207.4,104.8,205.5,106.3z"/>
		<path class="st8" d="M197.8,114.2c2.7-0.7,5.4-1.4,7.8-2.8c0.6-0.4,1.1-1,1.9-1c0.4,0,0.7,0.1,1.1,0.3c0.8,0.8,1.8,1.4,1.6,2.7
			c-0.6,0.7-1.5,1-2.2,1.6c-0.6,0.5-1.2,0.8-1.9,1c-0.7,0.2-1.4,0.4-2.2,0l0,0c-4.5-1.8-4.8,2.4-6.4,4.6c-0.8,1.1,0.1,3.3-2.3,3.2
			c-1.2-1.8-1-3.6,0.1-5.3c0-0.2,0-0.4,0-0.6c0.3-1.1,1.5-1.7,1.9-2.8C197.3,114.7,197.6,114.5,197.8,114.2z"/>
		<path class="st33" d="M144.7,92.5c-1.7-0.2-2-0.2-1.7-2.9c0.3-3.2-0.5-4.4-4.1-4.4c-3.9,0-3.1,2.2-3.3,4.4
			c-0.1,1.3,1.1,3.7-1.6,3.6c-2.2-0.1-1.4-2.2-1.3-3.4c0.2-4.5-0.8-9.1,0.6-13.5c2.2,3.4,0.7,7,0.8,10.5c-0.1,0.6-0.7,0.2-0.1,0.4
			c0,0,0.1-0.1,0.1-0.3c0.1-2.2,1.3-3.1,3.4-3c1.9,0.1,3.8-0.2,5.6,0.3C145.9,86.5,144,89.7,144.7,92.5z"/>
		<path class="st34" d="M120.1,101.9c2-3.4,5.2-4.1,8.8-4.1c0.8,0.3,1.3,0.8,1.4,1.7c0,0.4-0.1,0.8-0.3,1.1c-0.6,1-1.5,1.7-2.5,2.3
			c-1.7,1.3-0.5,3.6-1.9,5c-0.3,0.2-0.7,0.3-1.1,0.2c-0.5-0.4-0.7-0.9-0.8-1.5c-0.2-0.9-0.3-1.8-0.5-2.7c-0.5-1.7-2.3,0-3-1.1
			C119.9,102.6,119.9,102.2,120.1,101.9z"/>
		<path class="st35" d="M52.9,71c-0.2,0.3-0.4,0.5-0.5,0.8c-1,0.5-1.9,1.1-3,1.3c-0.5,0.1-0.9,0.1-1.4,0c-0.2,0-0.5-0.1-0.7-0.1
			c-7.2,0-14.4-0.5-21.6,0.3c-1.8,0.5-3.7,0.3-5.5,0.7c-0.7,0.1-1.4,0-1.9-0.5c-0.5-3.1,1.9-2.3,3.4-2.3C32.1,71,42.5,71,52.9,71z"
			/>
		<path class="st36" d="M126.9,69.1c0.1,4.3-3.1,1.3-4.7,2c-1,0.5-2.2,0.1-2.2-1.7c0.1-4.6,0-9.2,0.1-13.9c0-1.2,0.4-2,1.8-1.2
			c0.9,2.9,0.6,6,0.3,8.9C122,66.8,122.7,69.2,126.9,69.1z"/>
		<path class="st37" d="M130.6,159.3c-1.2,1.5-3,0.9-4.5,0.9c-10.1,0.1-20.3,0-30.4,0c-1.6-0.8-3.4-1.5-3.9-3.5c0.4,0,0.9,0,1.3,0
			c1.1-0.1,2.1,0.1,3,0.7c2.2,1.1,4.5,0.7,6.8,0.7c7.5,0.1,15,0,22.4,0C127.1,158.2,129.1,157.8,130.6,159.3z"/>
		<path class="st38" d="M142.8,84.5c-0.3,0-0.6,0-0.9,0c-6.6,0-6.6,0-7.2,6.4c0,0.3-0.3,0.7-1.5,0.9c0-5.2,0-10.4,0-15.6
			c0.2-0.2,0.5-0.3,0.8-0.2c0.7,0.3,1.1,0.8,1.3,1.6c0.5,1.8-1.2,4.3,1,5.4c1.7,0.9,4,0.1,6,0.3C142.9,83.6,143.1,84,142.8,84.5z"/>
		<path class="st39" d="M107.1,136.9c2.9,1.7,4.5,4.8,7,6.8c0.6,0.5,1.3,1,1.5,1.9c0.1,0.6-0.1,1.2-0.6,1.7
			c-1.4,0.4-2.3-0.7-3.4-1.2c-3.3-0.9-5.1-2.9-5.4-6.3c-0.1-0.7,0-1.3,0.1-1.9C106.5,137.5,106.7,137.2,107.1,136.9z"/>
		<path class="st40" d="M171.6,141.1c-4.3,5.4-8.5,6.4-13.2,3.3c-1.5-1-2.6-2.2-2.4-4.2c1.1-0.4,1.8,0.5,2.8,0.7
			c2.1,2.1,4.5,2.6,7.3,1.7c2.2-0.2,3-2.3,4.6-3.3c0.4-0.1,0.8-0.1,1.1,0.1C172.2,140.1,172.1,140.6,171.6,141.1z"/>
		<path class="st41" d="M189.9,99.4c1.3,0.5,0.6,2.9,2.6,2.6c2.8,2.1,1.1,3.2-0.9,4.2c-4.4,0.8-3.5,5.6-6,7.9
			c-0.8-0.6-0.9-1.5-0.8-2.4c0.3-1.7,1.1-3.1,1.7-4.7c0-1.4,3.2-2,0.9-4c-0.7-1-0.2-1.9,0.2-2.8c0.2-0.3,0.5-0.7,0.8-0.9
			c0.2-0.1,0.3-0.2,0.5-0.3C189.2,99,189.6,99.1,189.9,99.4z"/>
		<path class="st42" d="M178.3,113.2c0.7-3.4,2.5-6.2,3.7-9.4c0.3-0.4,0.5-1,1.1-1.2c0.6,0,1.1,0.3,1.5,0.7c0.2,0.3,0.4,0.7,0.4,1.1
			c-0.1,1.2-0.3,2.4-0.5,3.6c-1,2.2-1.4,4.7-3.8,5.9C179.8,114.1,179,114.1,178.3,113.2z"/>
		<path class="st43" d="M185.6,111.6c0,0.9,0,1.7,0,2.6c-1.8,4.9-3.8,9.7-6.9,14c-0.4,0.3-0.8,0.3-1.1,0c-0.8-1.8,0.1-3.3,1-4.8
			c1.6-2.4,2.5-5.1,3.8-7.6C183.5,114.3,183.1,111.8,185.6,111.6z"/>
		<path class="st44" d="M108.9,107.1c-0.2-2,0.3-3.7,1.7-5.2c0.2-3.1-0.6-6.1-0.3-9.2c0.1-1.5-0.1-3.2,1.1-4.4
			C113.8,94.9,114,101.3,108.9,107.1z"/>
		<path class="st45" d="M142.8,84.5c0-0.2,0-0.5,0-0.7c-0.5-0.3-0.5-0.6,0-0.9c0-1.7,0.1-3.4,0.1-5.1c0-2.1,0.9-2.3,2.3-1
			c-0.6,1.7-1.7,3.5,0,5.2c-0.2,3.5,1.1,7.1-0.7,10.5C142.4,90.2,145.1,86.8,142.8,84.5z"/>
		<path class="st6" d="M92.2,67.1C92,69.8,90,72,90.5,74.9c0.4,2.3-1.8,0.2-2.7,1.3c-1.2,1.3-2.3-0.3-2.9-1.4
			c-0.7-1.2-0.9-2.7-1.3-4c0.8-0.2,1.3,0.3,1.7,0.9c1.5,1.8,2.9,1.2,4.4-0.1C90.2,70,90.9,68.4,92.2,67.1z"/>
		<path class="st46" d="M195.3,76.9c0,5,0,10,0,15.9c2.1-2.1,1.1-3.8,1.6-5.2c0.4-1.1,1-1.3,1.7-0.3c-2.2,0.8-0.8,2.7-1.1,4
			c-0.2,1-0.2,2.1-1.7,2c-1.2-0.1-1.4-0.9-1.3-1.8c0.4-5.1-0.8-10.2,0.6-15.3c0.3,0.1,0.4,0.2,0.4,0.4
			C195.5,76.8,195.4,76.9,195.3,76.9z"/>
		<path class="st47" d="M102.7,132.4c-1,0-2,0.1-2.6-0.9c-1.4-0.8-2.3-1.9-2.6-3.4c-1.1-0.7-1.2-2.3-2.6-2.6
			c-1.5-0.8-2.7-1.9-3.1-3.6c0.1-0.4,0.3-0.8,0.6-1C96.5,124.2,100,127.9,102.7,132.4z"/>
		<path class="st48" d="M124.5,130.7c-0.6,0-1.1,0-1.7,0c-3.7-2.1-6.3-5.1-7-9.4c0.3-0.3,0.6-0.3,1-0.1c2,2,4.1,4,5.8,6.3
			C123.2,128.6,124.9,129,124.5,130.7z"/>
		<path class="st46" d="M219.2,91.7c-2.6,0-5.3,0.9-7.6-1.1c-0.4-2-0.6-4,0.1-6c2.3-0.8,5.2,1.5,6.9-1.6c0.3,2.3,0.3,2.3-2.7,2.3
			c-1.8,0-3.7-0.5-3.6,2.6c0.1,2.4,0.7,3.4,3.2,3.2C216.8,91.1,218.2,90.5,219.2,91.7z"/>
		<path class="st49" d="M92.4,120.9c0,0.4-0.1,0.8-0.1,1.2c-3.9,1.9-6.2,0.5-6.5-4.2c0.4-0.6,1-0.9,1.7-1c0.7-0.1,1.4-0.1,2,0.1
			c0.7,0.3,1.1,0.7,1.2,1.4C90.6,119.6,92,119.9,92.4,120.9z"/>
		<path class="st50" d="M168.1,87.2c-0.1,0.6-0.9,1.2,0.1,1.8c-0.6,0.6-1.3,1.1-1.9,1.7c-0.5,0.7-0.3,2-1.6,2.1
			c-0.7,0-1.3-0.4-1-1.3c0.6-2.9,2.3-5.2,3.6-7.8c0.6,0.3,1.1,0.6,1.7,0.9c0.2,0.3,0.3,0.6,0.2,1C169.1,86.3,168.6,86.8,168.1,87.2z
			"/>
		<path class="st51" d="M109.6,100.2c-0.6,0.6-1.1,1.2-1.7,1.8c-0.7-0.9-0.6-1.7,0-2.6c0-0.6,0-1.1,0-1.7c0-0.6,0.1-1.3,0.4-1.9
			c0.5-2.3-0.2-4.8,0.8-7.1c0.3-1.1-0.3-2.3,0.5-3.3c1.2,0.5,0.7,1.7,1,2.6C110.8,92.2,112.2,96.4,109.6,100.2z"/>
		<path class="st13" d="M140.3,56c-1,0-2.1,0.1-3-0.1c-2.8-0.5-4.9-0.3-4.9,3.4c0-1.7,0-3.5,0-5.2c2.3-0.1,4.6-0.3,6.9-0.2
			C140.6,54,141.7,54.5,140.3,56z"/>
		<path class="st52" d="M171.4,101.4c2.3,0.5,3.8,1.4,1.9,4c-0.5,0.8-0.6,1.8-0.9,2.8c-0.3,0.3-0.7,0.4-1.2,0.3
			c-0.9-0.4-1.2-1.2-1.4-2C169.9,104.6,168.3,102.3,171.4,101.4z"/>
		<path class="st53" d="M165.3,118.6c-1.9-2.6-3-5.6-4.3-8.5c-0.2-0.6-0.4-1.2-0.1-1.8c2.4-0.6,2.4,1.7,3.4,2.8
			c0.4,0.7,0.8,1.5,1.3,2.2c0.8,1.7,2,3.4,1,5.4C166.1,118.9,165.7,118.9,165.3,118.6z"/>
		<path class="st54" d="M220.2,101c-0.2,0.3-0.4,0.7-0.6,1c-2.9,0.8-4.7-2-7.2-2.4c-0.6-0.2-1.2-0.4-1.6-0.9
			c-0.2-0.4-0.1-0.8,0.1-1.2c0.6-0.2,1.2-0.3,1.8,0.2C215.5,97.9,218.6,97.7,220.2,101z"/>
		<path class="st55" d="M195.1,118.4c0.4,1.8-0.7,3.8,0.9,5.4c0.2,0.2,0.3,0.3,0.3,0.5c-0.1,0.2-0.1,0.3-0.2,0.3
			c0.3,1,1.5,2.3-0.7,2.7C194,124.3,191.9,121.4,195.1,118.4z"/>
		<path class="st56" d="M220.5,155.8c-1.2-0.5-2.6,1.9-3.2,0.4c-0.8-1.9-0.6-4.2,0-6.4c2.5,0.5,0.2,4.2,3.2,3.8
			c0.3,0.1,0.4,0.4,0.5,0.7c0.1,0.3,0.1,0.6,0,0.9C220.9,155.4,220.8,155.6,220.5,155.8z"/>
		<path class="st57" d="M158.4,141.5c-0.8-0.4-1.6-0.8-2.4-1.2c-0.1-0.3-0.2-0.6-0.3-0.9c0.3-0.3,0.7-0.3,1.1,0
			c1.1,0.7,2.2,1,3.5,0.9c0.6-0.5,1.2-0.5,1.7,0c1.3,0,2.1-0.6,2.6-1.7c0.6-0.7,1.3-0.7,2.1-0.5c0.4,0.2,0.6,0.4,0.8,0.8
			c0,0.4,0,0.8-0.2,1.2c-0.3,0.5-0.8,1-1.3,1.3C163.6,142.8,161,143.4,158.4,141.5z"/>
		<path class="st58" d="M168,134c0.9-2.1,2.8-3.9,1.8-6.5c-0.2-0.4-0.2-0.8-0.1-1.2c4,0.7,1.8,4,2.5,6.1c0.1,0.4,0,0.9,0,1.3
			c-0.5,1.6-1.1,3-3.3,2.5C168.1,135.7,167.6,135,168,134z"/>
		<path class="st59" d="M126.9,69.1c-4,0.8-5.6-0.7-5.1-4.8c0.3-3.3,0.1-6.6,0.1-9.9c1.6,2.9,0.8,6.1,0.6,9
			C122.2,67,123.3,68.7,126.9,69.1z"/>
		<path class="st60" d="M207.4,132.5c-1.9,1.7-4.1,0.5-6.2,0.9c-3.1-0.6-5.4-1.9-5.8-5.4c0.3-0.1,0.5,0,0.8,0.1
			C199.3,131.1,203.8,130.7,207.4,132.5z"/>
		<path class="st61" d="M129.8,99.5c-0.3-0.6-0.6-1.1-0.9-1.7c3.4-1.8,6.3,0.9,9.6,0.8c0.2,0.2,0.3,0.4,0.3,0.6
			c0,0.2-0.1,0.4-0.1,0.4c-0.8,0.8-1.8,1.4-2.9,1.8c-0.8,0.1-1.5-0.2-2.2-0.5C132.3,100.3,130.8,100.6,129.8,99.5z"/>
		<path class="st62" d="M231.9,127.9c0.8,0.1,1.6,0.2,2.5,0.4c-0.9,1.2-2.1,2.3-1.7,4c-1.2,0-2.4,0-3.6,0c-0.4-0.5-0.7-1.1-0.7-1.7
			c0-0.7,0.2-1.2,0.8-1.7C230.2,128.9,231.3,129.1,231.9,127.9z"/>
		<path class="st63" d="M180.3,101.2c-1.2-0.5-3.6-0.3-1.8-2.8c3.1-0.6,6.3-0.2,9.4-0.3c0.8,0,1.3,0.4,1.3,1.3l-0.1,0
			c-2.1,1.5-4.6,0.9-6.9,1.4C181.6,101.1,180.9,101.2,180.3,101.2z"/>
		<path class="st64" d="M173.4,155.8c-0.9,0.4-1.6,1.7-2.9,0.3c-2.3-2.6,1.2-3.7,1.3-5.9c1.4,1.1-0.2,3.1,1.5,3.9
			C173.8,154.6,173.9,155.2,173.4,155.8z"/>
		<path class="st65" d="M148.8,154.6c-1.2,0-2.1,0.7-3.1,1.2c-0.7,0.3-2,0.2-2.7-0.3c-0.7-0.5-0.3-1.5,0.3-2.3
			c0.8-1,1.6-0.8,2.5-0.1C146.8,153.8,147.9,154.1,148.8,154.6L148.8,154.6z"/>
		<path class="st66" d="M160.2,155.8c-0.9,0.2-1.6,1.8-2.6-0.2c-0.6-1-0.6-1.2,0.1-2.1c0.7-1-0.4-2.5,1-3.8c1.7,1.4-0.3,3.9,1.6,5
			c0.2,0.2,0.3,0.4,0.2,0.7C160.4,155.7,160.3,155.8,160.2,155.8z"/>
		<path class="st67" d="M138.5,99.5c0-0.3,0-0.5,0-0.8c3.4,0.5,6.5,1.4,7.6,5.2c-0.4,0.2-0.8,0.2-1.2,0.2
			C142.8,102.4,139.6,102.4,138.5,99.5z"/>
		<path class="st68" d="M168.3,72.6c1.9-1.2,2.4-3.8,4.4-1.9c0.9,0.8,2.5,1.4,2,3c-0.2,0.7-1.2,0.8-1.8,0.2
			C171.8,72.9,170.6,72.4,168.3,72.6z"/>
		<path class="st69" d="M243.1,82.1c0,0.3,0,0.5,0,0.8c-1.6,1.6-3.7,1.1-5.6,1.2c-1.6,0.1-3.1,0-4.5,0.8c-0.5,0.1-0.9,0.1-1.4-0.1
			c-1.7-2.1-0.6-2.8,1.5-2.8C236.4,82,239.8,82,243.1,82.1z"/>
		<path class="st70" d="M231.6,84.8c0.3-0.1,0.7-0.2,1-0.2c0.3-0.3,0.7-0.3,1.2-0.3c1.2,0.6,2.9,1,2.4,3c0,0.9,0,1.8-0.1,2.7
			C233.8,88.9,232,87.5,231.6,84.8z"/>
		<path class="st71" d="M107.1,84.7c-2.6,0.3-3.2-2-4.4-3.5c-0.1-0.8,0.2-1.5,0.9-1.9c0.6,0.2,1.1,0.3,1.7,0.5
			c1.1,1.1,2.4,2.1,2.3,3.9C107.6,84,107.4,84.4,107.1,84.7z"/>
		<path class="st72" d="M109.6,100.2c1.5-4,0.9-8.1,1.1-12.2c0.2,0,0.5,0,0.6,0.2c-0.2,4.6,1.1,9.2-0.8,13.6
			C110.6,101.2,110.3,100.6,109.6,100.2z"/>
		<path class="st33" d="M142.8,82.9c0,0.3,0,0.6,0,0.9c-0.4,0-0.9,0-1.3,0c-6,0-6,0-6.8-6.1c-0.1-0.5-0.4-1.1-0.6-1.6
			c2-0.3,1.6,1.3,1.5,2.3c-0.8,4.4,1.6,5,5.1,4.6C141.4,82.9,142.1,82.9,142.8,82.9z"/>
		<path class="st73" d="M156.8,139.3c-0.4,0-0.7,0-1.1,0c-2.4-2.7-1.7-4.8,1-6.7c0.3,0.1,0.4,0.3,0.4,0.4c-0.1,0.2-0.2,0.3-0.3,0.3
			C156,135.4,157,137.3,156.8,139.3z"/>
		<path class="st74" d="M148.8,154.6C148.8,154.6,148.8,154.6,148.8,154.6c1.6-2.3,3.3-1.5,5.1-0.4c0.3,0.2,0.5,0.3,0.4,0.5
			c-0.1,0.2-0.2,0.2-0.3,0.2C152.2,156.1,150.4,157.2,148.8,154.6z"/>
		<path class="st75" d="M90.7,118.4c-0.3-0.3-0.7-0.5-1-0.8c-0.3-0.3-0.6-0.7-0.6-1.2c0-1.7,1-2.6,2.5-3c1.2,0,2.5-0.2,2.5,1.6
			c0,0.3,0,0.6,0,0.9C93.1,116.9,91.4,116.9,90.7,118.4z"/>
		<path class="st76" d="M116.6,121.3l-0.4,0c0,0-0.4,0.1-0.4,0.1c-1.7-4-2.2-8.1-0.9-12.3c0.3,0.3,0.6,0.6,0.7,1
			c0.6,2,0.1,4.1,0.7,6c0.2,0.7,0.5,1.4,0.8,2.2c0.3,0.7,0.4,1.5,0.2,2.2C117.2,120.8,116.9,121.1,116.6,121.3z"/>
		<path class="st77" d="M171.6,141.1c0-0.6,0-1.2,0-1.8c-0.6-1.3,0.5-2.1,1-3.1c0.9-1.3,1.8-2.5,3.2-3.2c0.4-0.1,0.7,0,1.1,0.2
			C176.3,136.7,173.8,138.8,171.6,141.1z"/>
		<path class="st78" d="M57.6,147c0.7,0.4,0.5,1.8,1.7,1.8c2.3,0.9,4.7,1.8,7,2.7c-0.7,1-1.8,1.1-3,1.1c-0.4,0-0.8,0-1.3-0.1
			c-1-0.2-2-0.6-2.9-1.1c-0.7-0.4-1.4-0.7-2-1.3c-0.5-0.7-0.6-1.4-0.4-2.2C57,147.5,57.2,147.2,57.6,147z"/>
		<path class="st79" d="M207.3,156.6c-1.5,0.1-3.4,0.8-3.7-1.5c-0.3-2,1-2.7,2.9-2.7c0.3-0.3,0.6-0.3,1-0.2
			C207.6,153.7,207.2,155.1,207.3,156.6z"/>
		<path class="st80" d="M81.8,70.7c0,1.4,0,2.8,0,4.5c-1.6-1-3-1.9-4.4-2.7c0.2-0.4,0.5-0.6,0.9-0.7l0.1-0.2l-0.2-0.2
			C79.5,71.4,80.4,69.7,81.8,70.7z"/>
		<path class="st81" d="M170,126.3c-0.1,0.4-0.1,0.8-0.2,1.2c-1.9-2.7-3.3-5.7-4.4-8.9c0.4,0,0.7-0.1,1.1-0.1
			C168.8,120.6,171.2,122.6,170,126.3z"/>
		<path class="st82" d="M168,134c0.3,0.7,0.7,1.4,1,2c0.5,0.5,0.5,1,0.3,1.6c-0.4,0.7-1,1.2-2,1.1l-0.2-0.3c-0.7-0.8-2-0.6-2.6-1.7
			c0-0.5,0-1.1,0-1.6C166,135.4,167,134.8,168,134z"/>
		<path class="st83" d="M171.4,101.4c-2,1.5-0.2,3.4-0.7,5.1c-2.5-0.7-3.4-2.3-2.9-4.8c0.2-0.1,0.3-0.3,0.5-0.4
			c1.4-0.2,2.3-0.9,2.9-2.1C171.8,99.8,171.7,100.6,171.4,101.4z"/>
		<path class="st84" d="M18.4,73.4c0.5,0,1,0,1.5-0.1c1.1-0.7,2.3-0.4,3.4-0.2c0.8,1.3,0.2,2.3-0.7,3.2c-1,0.5-1.9,0.4-2.7-0.3
			c-0.3,0-0.5,0-0.8-0.1C18.7,75.1,17.6,74.5,18.4,73.4z"/>
		<path class="st85" d="M196.1,155.9c-0.5,0.7-1.3,1-1.5,0.1c-0.3-1.6-0.6-3.3,0.1-4.9c2-0.2,0.8,2.1,2.1,2.2
			C197.4,154.4,196.9,155.2,196.1,155.9z"/>
		<path class="st86" d="M245.7,154.1c0.6-1.1,1.1-2.5,2.7-1.2c1.1,0.9,1.2,2.4,0.4,2.9c-1,0.8-2.3,0.1-3.1-1.1
			c-0.3-0.1-0.3-0.3-0.3-0.5C245.6,154.2,245.7,154.1,245.7,154.1z"/>
		<path class="st87" d="M171.3,108.2c0.4,0,0.7,0,1.1,0c0.7,1.4,1.3,2.8,2,4.2c0.6,0.9,0.4,1.6-0.5,2.1c-0.7,0-1.3-0.3-1.8-0.8
			c-0.8-0.8-1.2-1.8-1.3-3C170.6,109.8,170.7,108.9,171.3,108.2z"/>
		<path class="st88" d="M191.6,106.3c0.9-1.3,2.4-2.4,0.9-4.2c1,0,1.9,0,2.9,0.1c0.9,1.5,1.1,3-0.4,4.3
			C193.9,106.4,192.7,106.3,191.6,106.3z"/>
		<path class="st15" d="M145.3,82.1c-0.4,0.3-0.9,0.6-1.3,0.9c-0.2-2.2-1.5-4.6,1.3-6.1C145.3,78.6,145.3,80.3,145.3,82.1z"/>
		<path class="st89" d="M89.6,71.6c-0.3,1.4-0.8,3.1-2.3,3.2c-1.7,0.1-1.7-1.8-2.1-3.1C86.7,71.7,88.2,71.6,89.6,71.6z"/>
		<path class="st90" d="M189.1,99.5c-3.4-1.9-7.1-0.3-10.7-1c3.9-0.3,7.8-1.9,11.4,1c0,0-0.4-0.1-0.4-0.1L189.1,99.5z"/>
		<path class="st91" d="M26.1,155.8c-2.6-0.1-5.3,0.7-7.8-0.8c0.1-1.1-0.9-2.5,0.7-3.3c0.6,0.4,1.1,0.9,1.5,1.4
			c0.4,0.4,0.8,0.7,1.3,0.8c1.1,0.2,2.2,0.1,3.3,0.3c0.4,0.1,0.7,0.3,1,0.5C26.3,155.1,26.3,155.5,26.1,155.8z"/>
		<path class="st92" d="M200.5,85.7c0-0.3,0-0.7,0-1c0-0.4,0-0.8,0.1-1.1c0.1-0.2,0.1-0.4,0.2-0.5c0.5-1.2,0.2-2.7,1.5-3.6
			c0.5,0,1,0,1.5,0C204.2,82.3,203.7,84.7,200.5,85.7z"/>
		<path class="st93" d="M115.1,110c0-0.3-0.1-0.6-0.1-0.9c-0.3-2.3,0.9-3.9,2.5-5.3c0.6,0.1,1.1,0.5,1.2,1.1
			c-0.1,1.4-0.9,2.5-1.4,3.8c-0.3,0.5-0.6,1-1.1,1.3C115.9,110.1,115.5,110.1,115.1,110z"/>
		<path class="st94" d="M173.4,155.8c0-0.6-0.1-1.1-0.1-1.7c0.5-0.8,1.2-1.7,2.2-1.3c0.5,0.2,0.4,1.4,0.6,2.1
			c0.2,0.2,0.3,0.5,0.2,0.7c-0.1,0.2-0.2,0.3-0.2,0.3C175,157.8,174.3,156,173.4,155.8z"/>
		<path class="st15" d="M135,62.9c1-2.3,2.7-2.4,5.2-0.1C138.5,62.8,136.7,62.8,135,62.9z"/>
		<path class="st95" d="M195.1,106.4c0.1-1.4,0.2-2.8,0.4-4.3c0.8-1.1,1.7-2.1,3.3-1.8c-0.6,0.8-1.2,1.7-1.8,2.5
			c0.1,1.5,0.7,2.9,0,4.4c-0.4,0-0.7,0-1.1,0C195.6,107,195.3,106.7,195.1,106.4z"/>
		<path class="st96" d="M229.1,130.7c0,0.5,0,1.1,0,1.6c-0.2,0.1-0.5,0.1-0.7,0.1c-1.2,0-2.4,0-3.6-0.1c-0.3-0.7,0.3-1.3,0.1-1.9
			c-0.5-1.1-0.3-2.1,0.8-2.7c0.4-0.1,0.7,0,1,0.1C227.7,128.7,228.2,129.9,229.1,130.7z"/>
		<path class="st94" d="M220.4,154.1c0.1-0.2,0.1-0.3,0.1-0.5c1.1-0.3,2.3-0.8,3,0.4c0.3,0.5,0.2,1.6-0.1,2c-1,1.3-1.9-0.7-2.9-0.3
			c0-0.3,0-0.6,0-0.9c0.4,0,0.5-0.2,0.3-0.5C220.7,154.2,220.6,154.1,220.4,154.1z"/>
		<path class="st97" d="M156.8,133.4c0-0.2,0-0.5-0.1-0.7c2.8-0.5,5.5-0.8,7.1,2.3C161.3,135.6,159.6,131.9,156.8,133.4z"/>
		<path class="st98" d="M232.4,153.4c1,0.2,1.9-1.1,2.9-0.1c1.1,0.6,1.7,1.3,0.9,2.6c-0.9,0-1.8,0-2.7,0
			C231.6,155.7,232,154.6,232.4,153.4z"/>
		<path class="st99" d="M160.2,155.8c0-0.3,0-0.7,0-1c-0.1-2.4,1.7-1.3,2.7-1.4c0.7-0.1,1,0.6,0.8,1.2
			C163.2,156.6,161.6,155.8,160.2,155.8z"/>
		<path class="st99" d="M187.1,154.2c1-1.6,2.3-1.3,3.5-0.4c0.4,0.4,0.4,1.3-0.2,1.9c-1.3,1.1-2.2,0.3-3-0.7
			C187.4,154.7,187.3,154.5,187.1,154.2z"/>
		<path class="st100" d="M210.7,152.5c1,0,1,0.8,1.1,1.5c0.2,1.2-0.2,1.9-1.6,1.8c-0.8,0-1.3-0.6-1.3-1.3
			C208.9,153.3,209.8,152.8,210.7,152.5z"/>
		<path class="st101" d="M239.3,153.2c0.5,1.1,0.7,2.4-0.1,3.2c-0.7,0.8-1.5-0.4-2.3-0.6C236.1,153.4,236.7,152.4,239.3,153.2z"/>
		<path class="st102" d="M176.8,133.3c-0.3,0-0.6,0-0.8,0c-0.3-0.3-0.5-0.7-0.6-1.1c0-1.9,0.5-3.4,2.4-4.2c0.3,0,0.6,0,0.9,0.1
			C178.5,130,178,131.8,176.8,133.3z"/>
		<path class="st103" d="M229.1,130.7c-1.6-0.1-2.4-1.1-2.7-2.6c-0.3-0.4-0.2-0.7,0.3-0.9c0.4-0.3,0.7-0.7,1.1-1
			c0.5,0.9,0.9,1.8,1.4,2.7C229.2,129.6,229.1,130.1,229.1,130.7z"/>
		<path class="st104" d="M19.9,153.3c-0.3-0.5-0.6-1-0.8-1.6c2.3-0.3,4.7-0.5,7-0.8c0.3,0.4,0.4,0.8,0.3,1.2
			c-0.2,0.4-0.5,0.7-0.9,0.9C23.6,153.6,21.8,153.6,19.9,153.3z"/>
		<path class="st105" d="M115,147.2c0-0.6,0-1.3,0-1.9c1.5-0.3,1.8,1.2,2.6,1.8c0.6,0.6,1.2,1.2,1.7,1.8c0.2,0.2,0.3,0.4,0.3,0.7
			c0,0.2-0.1,0.4-0.1,0.4c-0.8,0.5-1.5,0.1-2.2-0.1c-0.9-0.4-1.8-0.8-2.4-1.5C114.6,147.8,114.7,147.5,115,147.2z"/>
		<path class="st106" d="M158.5,71.8c-0.9,0.7-2,1.5-3.1,2.1c-0.1,0.1-0.7-0.7-1.1-1.1c0.9-0.8,1.5-2.1,3-2
			C157.9,70.8,158.5,70.8,158.5,71.8z"/>
		<path class="st107" d="M119.3,149.8c0-0.3,0-0.7,0-1c2.3,0.9,4.7,1.8,7,2.7c-0.9,1-2.1,1.1-3.3,1
			C121.3,152.3,119.8,151.8,119.3,149.8z"/>
		<path class="st108" d="M99.3,77.7c-0.3-0.8-0.6-1.7-0.9-2.5c2.1,0.4,4.4,0.6,5,3.3c-0.7,0.4-1.4,0.2-2.1,0.1
			C100.5,78.5,99.7,78.4,99.3,77.7z"/>
		<path class="st108" d="M96.4,74.1c-0.2,0.1-0.3,0.2-0.5,0.2c-0.9-1.1-0.7-2.3-0.1-3.5c0.3-0.9,0.6-1.8,0.9-2.7
			c0.3,0.2,0.5,0.3,0.8,0.5C97.1,70.4,96.8,72.2,96.4,74.1z"/>
		<path class="st109" d="M196.1,155.9c-0.5-1.1,0.5-1.7,0.7-2.6c1.3,0.5,2.9,0.9,2,2.8C198,157.7,197,156.4,196.1,155.9z"/>
		<path class="st110" d="M101.9,77.8c0.5,0.2,1,0.5,1.5,0.7c0.2,0.2,0.3,0.5,0.3,0.8c-0.1,0.8-0.2,1.5-0.9,1.9c-0.6,0-1.2,0-1.8,0
			C99.9,79.7,100.3,78.6,101.9,77.8z"/>
		<path class="st111" d="M107.2,83.7c-0.6-1.3-1.2-2.6-1.8-4c2.2,0.4,3.1,2,3.6,4C108.4,84.3,107.8,84.3,107.2,83.7z"/>
		<path class="st112" d="M107.2,83.7c0.6,0,1.2,0,1.8,0c0.3,0.6,0.5,1.2,0.8,1.8c0,1.2,0,2.3,0,3.5c-0.1,0.1-0.3,0.2-0.4,0.3
			c-0.1-0.1-0.3-0.2-0.4-0.3c0.1-1.7-0.4-3.2-1.7-4.3C107.1,84.3,107.1,84,107.2,83.7z"/>
		<path class="st113" d="M245.7,154.1c0,0.2,0,0.5,0,0.7c-0.9,0.3-0.5,2.4-1.9,1.5c-0.5-0.3-0.7-1.7-0.4-2.3
			C244.1,152.4,244.9,154.4,245.7,154.1z"/>
		<path class="st25" d="M161.2,108.1c0,0.7-0.1,1.4-0.1,2c-1.1-1.3-2.2-2.8-2.6-4.5c0,0,0.3-0.2,0.3-0.2c0.9-0.3,1.6,0.1,2.3,0.6
			C161.5,106.6,161.9,107.3,161.2,108.1z"/>
		<path class="st114" d="M232.4,153.4c0.1,0.9-0.1,2,1.1,2.5c-1,2.3-2.3-1.1-3.3,0.2c-0.4-0.5-0.4-0.9,0-1.3
			C231.1,154.6,231.2,153.1,232.4,153.4z"/>
		<path class="st113" d="M207.3,156.6c-1.8-1.4-1.2-2.8,0-4.1c0.3-0.3,0.5-0.3,0.8,0C208.4,153.9,209,155.5,207.3,156.6z"/>
		<path class="st115" d="M241.6,157.1c-1.3-1.5-1.3-2.6-0.2-4.3C242.5,154.3,242.4,155.4,241.6,157.1z"/>
		<path class="st116" d="M178.3,113.2c0.9,0.1,1.8,0.1,2.7,0.2c0.4,0.2,0.5,0.5,0.5,1c-0.3,1-0.8,1.9-2,1.9
			c-0.8-0.1-1.6-0.5-2.1-1.2c-0.2-0.6-0.2-1.2,0.4-1.7C177.9,113.2,178.1,113.2,178.3,113.2z"/>
		<path class="st117" d="M180.3,101.2c0.3-0.3,0.6-0.6,0.9-1c2,0,2.6,0.8,1.8,2.6c-0.3,0.3-0.6,0.6-0.9,0.9
			C181.5,102.9,180.9,102.1,180.3,101.2z"/>
		<path class="st56" d="M239.3,153.2c-1.8-0.1-2.4,0.9-2.3,2.6l-0.4,0.1l-0.4,0c-0.3-0.9-0.6-1.7-0.9-2.6
			C236.6,152.8,238,151.2,239.3,153.2z"/>
		<path class="st118" d="M156.8,83.8c-0.9,0.3-1.7,1.2-2.7,0.6c-0.2-0.1,0-0.9,0.1-1.4c1.5,0,2.9,0,4.4,0
			C158.6,84.5,157.8,84.3,156.8,83.8z"/>
		<path class="st119" d="M145.4,103.8c0.2,0,0.5,0,0.7,0c0.4,0.3,0.7,0.6,1.1,0.8c0.3,0.4,0.3,0.8-0.1,1.2c-0.3,0.3-0.7,0.5-1.1,0.6
			c-1.2,0.3-2.8,1.1-3.2-0.6C142.6,104.5,143.8,103.6,145.4,103.8z"/>
		<path class="st120" d="M212.6,97.7c-0.6,0.1-1.2,0.1-1.7,0.2c-1.3,0.9-2.6,1-4,0.3c-0.2-0.2-0.3-0.4-0.5-0.5
			C208.5,96.9,210.6,96.7,212.6,97.7z"/>
		<path class="st121" d="M173.7,114.2c0.2-0.6,0.4-1.3,0.7-1.9c0.7,0.2,1.3,0.4,1.6,1.1c0.5,1.2,0,2-0.9,2.7
			C173.9,115.9,172.8,115.7,173.7,114.2z"/>
		<path class="st122" d="M175.1,115.7c0.3-0.7,0.5-1.5,0.8-2.2c0.6,0,1.2-0.1,1.8-0.1c-0.1,0.6-0.2,1.1-0.2,1.7
			c-0.1,0.9-0.7,1.3-1.6,1.3C175.5,116.3,175.3,116.1,175.1,115.7z"/>
		<path class="st123" d="M117.6,147.1c-0.9-0.6-1.7-1.2-2.6-1.8c-0.3-0.5-0.6-1.1-0.9-1.6C116.2,143.9,117.3,145.1,117.6,147.1z"/>
		<path class="st124" d="M163.7,91.5c1.6,2,1.7-0.7,2.6-0.8c0.3,1.7-0.3,2.9-2.3,2.5C162.5,93,163.2,92.2,163.7,91.5z"/>
		<path class="st125" d="M26.1,151.6c0-0.2-0.1-0.4-0.1-0.6c1.4-0.5,2.8-0.9,4.2-1.4c0,0.4,0.1,0.7,0.1,1.1c-0.3,0.9-1,1.4-1.9,1.6
			C27.6,152.4,26.8,152.2,26.1,151.6z"/>
		<path class="st126" d="M101.9,48.2c-1.3-0.4-0.9-2-1.8-2.7c0.1-0.7,0.2-1.5,1.1-1.6c0.8,0,0.6,0.7,0.7,1.2
			C101.8,46.2,101.8,47.2,101.9,48.2z"/>
		<path class="st127" d="M32.3,145.6c0.2,0,0.4-0.1,0.6-0.1c-0.3,1.3,1.1,3.5-1.7,3.5C31.5,147.8,31.9,146.7,32.3,145.6z"/>
		<path class="st128" d="M208.1,152.4c-0.3,0-0.5,0-0.8,0c-0.3,0-0.6,0-0.9,0c0.4-0.8-0.4-2.4,1-2.3
			C208.9,150.1,208.1,151.5,208.1,152.4z"/>
		<path class="st129" d="M156.8,83.8c0.7,0,1.3-0.1,1.7-0.8c1.4,0,1.9,0.5,0.9,1.7C158.5,84.5,157.5,84.8,156.8,83.8z"/>
		<path class="st130" d="M200.4,99.2c-0.6,0.3-1.2,0.6-1.9,0.9c0.2-0.9-0.4-2.2,0.6-2.5C200.1,97.2,200.3,98.4,200.4,99.2z"/>
		<path class="st131" d="M127.2,151.7c1.5,0,3.4-1,3.7,1.6c0,0-0.3,0-0.3,0c-0.2,0.3-0.6,0.5-0.9,0.5c-1-0.1-1.8-0.5-2.5-1.1
			C126.9,152.3,126.9,152,127.2,151.7z"/>
		<path class="st132" d="M197,115c0.6,1.8-1.1,2-1.9,2.8C194.4,116,196.2,115.8,197,115z"/>
		<path class="st133" d="M107.1,136.9c0,0.3,0,0.5-0.1,0.8c-1,0.4-1.8,0.6-1.7-0.9c-0.3-0.7-0.5-1.3-0.8-2
			C105.9,134.9,106.8,135.6,107.1,136.9z"/>
		<path class="st100" d="M228.9,155.3c-0.7-0.7-1.5-1.4-0.6-2.4c0.2-0.3,0.7-0.5,1.1-0.4c1,0.2,0.5,1.1,0.5,1.7
			C229.6,154.6,229.6,155.2,228.9,155.3z"/>
		<path class="st134" d="M136.9,153.3c0.7,1.2,1.7,1.9,1.2,3.2c-0.1,0.1-0.6,0.2-0.7,0.1C136.1,155.9,136.9,154.8,136.9,153.3z"/>
		<path class="st135" d="M147.2,105.5c0-0.3,0-0.6,0.1-0.9c1.1,0.2,1.2,1.2,1.7,1.8c0,0.5,0,1.1,0,1.6c-0.3,0.3-0.7,0.4-1.1,0.2
			C147.2,107.5,146.6,106.6,147.2,105.5z"/>
		<path class="st136" d="M118.4,104.6c-0.3-0.3-0.6-0.6-0.9-0.9c0.5-1.1,1.4-1.8,2.6-1.9c0,0.3,0,0.7,0.1,1c0,0.2-0.1,0.3-0.1,0.5
			C119.7,104.1,119.2,104.5,118.4,104.6z"/>
		<path class="st137" d="M195.3,76.9c-0.1-0.2-0.1-0.5-0.2-0.7c1.6-0.4,3.1-0.6,4.5,0.6C198.2,76.8,196.8,76.9,195.3,76.9z"/>
		<path class="st138" d="M127.2,151.7c0,0.2,0,0.5,0,0.7c-0.9,1-2.1,1-3.3,0.7c-0.7-0.3-1.2-0.7-1.1-1.6c1.2,0,2.4,0,3.6,0
			C126.6,151.5,126.9,151.5,127.2,151.7z"/>
		<path class="st126" d="M228.9,155.3c0.3-0.4,0.6-0.7,0.9-1.1c0.2,0.1,0.3,0.3,0.3,0.6c0,0.4,0,0.9,0,1.3c-0.6,1-1.3,0.8-2.1,0.4
			C228.3,156.1,228.6,155.7,228.9,155.3z"/>
		<path class="st139" d="M62.6,151.6c1.2,0,2.5-0.1,3.7-0.1c0.3-0.1,0.5,0,0.7,0.2c0,0.3,0,0.5,0,0.8c-0.5,0.6-1.1,0.9-1.9,0.9
			C64,153.2,62.6,153.3,62.6,151.6z"/>
		<path class="st120" d="M205.6,98.6c-1.1,0-2.2,0-3.3,0c1-1.5,2.7-0.6,4-1l0.2,0.3C206.6,98.5,206.3,98.9,205.6,98.6z"/>
		<path class="st140" d="M176.1,156c0-0.4,0-0.7,0-1.1c0.6,0.2,1.6,0.1,1.4,1C177.3,157.1,176.6,155.8,176.1,156z"/>
		<path class="st0" d="M187.1,154.2c0.3,0.1,0.5,0.3,0.8,0.4c-0.2,0.1-0.3,0.3-0.5,0.4c-0.2-0.2-0.3-0.3-0.5-0.5
			C186.9,154.5,187,154.3,187.1,154.2z"/>
		<path class="st0" d="M153.9,155c0.1-0.2,0.1-0.5,0-0.7c0.2,0.1,0.4,0.2,0.6,0.3C154.3,154.7,154.1,154.8,153.9,155z"/>
		<path class="st141" d="M59.8,111.7c6.5,2.2,12.1-0.3,17.5-3.3c2-1.1,1.6-3.6,2.5-5.3c0.9,0.3,1.3,1,1.7,1.9c0.6,2-0.2,3.4-1.7,4.6
			c-0.5,0.4-1,0.9-1.6,1.2c-3.6,2-7.5,3.2-11.6,3.7c-2.8-0.2-5.6,0.7-8.2-0.9c-0.5-0.6-0.5-1.3,0.1-1.8
			C59,111.4,59.4,111.4,59.8,111.7z"/>
		<path class="st142" d="M57.3,85.5c0.3,0,0.6,0.1,0.9,0.1c0,0.2,0,0.4-0.1,0.6c1.1,8.3,0.4,16.7,0.1,25c-0.2,0.5-0.4,1-0.7,1.4
			c-3-0.2-2.8-2.4-2.9-4.5c0-0.5,0.1-1,0.3-1.5c0.9-6.3,0-12.7,0.5-19C55.7,86.6,55.9,85.5,57.3,85.5z"/>
		<path class="st143" d="M57.5,112.2c0-7.8-0.1-15.5-0.1-23.3c0-1,0-2,0.7-2.8c0.8,0.5,1.8,0.7,1.9,2c-0.7,6.4-0.9,12.8-0.8,19.2
			c0,0.5,0.1,1.1,0.1,1.6c-0.2,0.9-0.2,1.8,0,2.8c-0.3,0.3-0.6,0.6-0.9,0.9C58,112.8,57.7,112.6,57.5,112.2z"/>
		<path class="st144" d="M59.2,107.3c-1.1-6.5-2.4-12.9,0.8-19.2c0.2,0.6,1.2,0.9,0.9,1.8c0.1,4.4-1.2,8.6-0.8,13
			C60.4,104.5,59.8,105.9,59.2,107.3z"/>
		<path class="st80" d="M90.5,82.7c-3.1,1.8-2.7,5.8-5.2,8c-0.8-6.4-0.4-7.1,5.2-9.5C91,81.7,91,82.2,90.5,82.7z"/>
		<path class="st145" d="M64.4,79.2c-1.6-0.2-2.6-1.2-3.6-2.3c-0.2-0.5-0.1-0.9,0.4-1.2c3.4,0.2,6.9-0.9,10,1.1
			c0.3,0,0.5,0.1,0.8,0.1c1,0.5,1.4,1.4,1.4,2.5C70.3,80.7,67.4,78.6,64.4,79.2z"/>
		<path class="st6" d="M90.5,82.7c0-0.5,0-1,0-1.6c0.3-4.2,3.4-7,5.2-10.4c0,1.2,0.1,2.3,0.1,3.5C94.1,77.1,92.3,79.9,90.5,82.7z"/>
		<path class="st146" d="M64.4,79.2c2.9-2.2,5.7-0.4,8.6,0.2c1.5,2.3-1.4,2.4-1.9,3.7c-1.4-0.1-1.6-2.2-3.2-1.8
			c-0.8-0.3-1.7-0.6-2.5-1C65,79.9,64.7,79.6,64.4,79.2z"/>
		<path class="st147" d="M74,102.2c0,1.2-0.1,2.8-1.2,2.7c-1.7-0.2-2.4-2.1-2.8-3.5c-0.4-1.4,1-1.9,2.3-1.9
			C74.3,99.6,73.8,101.2,74,102.2z"/>
		<path class="st148" d="M60.1,102.9c-0.7-4.4-1.6-8.8,0.8-13c0.3,0.3,0.6,0.7,0.8,1c0.2,0.2,0.3,0.4,0.3,0.6c0,0.2,0,0.4-0.1,0.4
			c-0.1,1.6-0.7,3.3-0.2,4.9C61.2,98.8,60.6,100.9,60.1,102.9z"/>
		<path class="st149" d="M71.1,76.9c-3.4-0.4-6.9,0.6-10.2-0.9c-1.8,0.2-1.4-0.8-1-1.8c0.8-0.5,1.5-0.2,2.3,0c0.3,0.1,0.7,0.2,1,0.4
			c1.2,0.4,2.4,0.4,3.7,0.3c1.5,0,2.5-1.3,4-1.4c0.4,0,0.7,0.1,1.1,0.3c0.1,0.1,0.3,0.3,0.4,0.4C71.9,75,71,75.7,71.1,76.9z"/>
		<path class="st150" d="M80.9,104.6c-0.3-0.5-0.7-1-1-1.5c0.4-1.2,0.7-2.4,1.1-3.6c0.7-0.9,0.3-2.4,1.7-2.7
			c0.8,0.4,0.8,1.1,0.9,1.8c0.8,2.5,0.1,4.5-2.1,5.9C81.3,104.5,81.1,104.5,80.9,104.6z"/>
		<path class="st151" d="M70.4,82.8c0.7-1.2,3.2-1.1,2.5-3.4c-0.3-0.8-0.7-1.7-1-2.5c2.1,0.5,2.5,2.1,1.9,3.6
			c-0.5,1.5-1.2,3.2-2.9,3.9c-0.8,0.3-1.2-0.6-1.3-1.3C69.7,82.7,70,82.6,70.4,82.8z"/>
		<path class="st80" d="M82.7,96.7c-0.6,0.9-1.2,1.8-1.7,2.7c-0.7-2.9,1.7-4.7,2.6-7l0,0c0.3,0,0.6,0,0.9,0
			C83.9,93.9,83.3,95.3,82.7,96.7z"/>
		<path class="st80" d="M83.6,92.5c-3.4,0.1-2.8-2.2-2.2-4.5C82.1,89.5,82.8,91,83.6,92.5C83.6,92.5,83.6,92.5,83.6,92.5z"/>
		<path class="st152" d="M72.3,71.5c0.8,0,1.7,0,2.5,0c0.5,0.6,0.7,1.2-0.2,1.7c-0.7,0.5-1.3,1.1-2.2,1c0,0-0.4,0-0.4,0
			c-0.3-0.5-0.5-1.1-0.4-1.7C71.8,72.2,72,71.8,72.3,71.5z"/>
		<path class="st153" d="M70.4,82.8c-0.3,0.1-0.6,0.2-0.8,0.4c-0.6-0.6-1.2-1.3-1.8-1.9C70.1,79.4,70.4,80.9,70.4,82.8z"/>
		<path class="st144" d="M61.5,91.8c0.1-0.3,0.2-0.6,0.2-0.9c1.4,1.7,0.7,3.4,0.2,5.2C60.9,94.7,61.5,93.3,61.5,91.8z"/>
		<path class="st154" d="M61.5,91.8c0.1,1.4,0.3,2.9,0.4,4.3c0.1,0.3,0.1,0.5-0.1,0.7C60.4,95.2,60.6,93.5,61.5,91.8z"/>
		<path class="st155" d="M59.3,111.7c-1.4-0.9-1.3-1.8,0-2.8c0.7,0.8,0.6,1.8,0.5,2.8c0,0-0.3-0.1-0.3-0.1L59.3,111.7z"/>
		<path class="st151" d="M74.6,73.3c0.1-0.6,0.1-1.2,0.2-1.7c1.2-0.3,2.4-0.2,3.6,0.2c-0.3,0.2-0.6,0.5-0.9,0.7
			C76.5,72.8,75.6,73,74.6,73.3z"/>
		<path class="st156" d="M86.2,117.7c0.5,3.6,2.4,5.2,6.1,4.3c0.9,1.2,1.7,2.3,2.6,3.5c-0.1,0.2-0.3,0.5-0.4,0.7
			c-2.3-2.6-4.7,0.2-7-0.2c-2.3-0.4-4.3-1.5-5.2-4c-0.3-0.9-0.1-2.5-2.1-1.9c-1.7,0.5-1.8,1.5-1.8,2.9c0,1.7-0.1,3.5,0.9,5
			c-0.4,0.5-1,0.8-1.7,0.9c-2.4,0.4-4.1-0.8-5.5-2.4c-0.8-0.7-1.7-0.9-2.7-1c-1.1-0.2-1.7-1-2.4-1.7l0,0c-0.4-0.8-1-1.4-1.2-2.3
			c0-0.8-0.6-0.9-1.2-1.1c-0.7-0.6-0.7-1.3-0.4-2.1c0.5-0.7,1.2-1.2,2-1.4c1.5,0,3.3-0.7,3.5,1.8c-0.2,0.2-0.3,0.4-0.2,0.6
			c0.3-0.1,0.3-0.4,0.6-0.5c2.7-0.9,5.5-1.5,7.9-3.2c1.1,0.2,2,0.7,3.2,0.7c1.6,0.4,2.5-1.4,3.9-1.5c0.4,0.1,0.7,0.3,0.9,0.7
			C86.2,116.2,86.3,116.9,86.2,117.7z"/>
		<path class="st157" d="M99.3,153.3c1.1,0,2.2,0,3.3,0c0.6-1.7-5.7-2-0.7-4.3c0.6,0,1.3,0.1,1.9,0.4c4.1,0.7,8.2-0.3,12.2,1.1
			c0.7,1.8,6.3,2.2,1.6,5.5c-6.5,0.5-12.9,0.8-19.3-0.2C96.3,154,98.2,153.8,99.3,153.3z"/>
		<path class="st158" d="M97.5,155c7,0,14,0,20.9,0c1.9-0.7,4-1.7,3.4,2c-8.2,0.4-16.4,0.1-24.7,0.1c-1.4,0-2.9-0.3-4.1-1.1
			c-5.4-6.8-10.9-13.6-16.3-20.4c-0.5-0.6-0.7-1.5-1.1-2.2c0.3-0.4,0.6-0.4,0.9,0c2.5,2.2,3.9,5.4,7,7c0.5,0.5,1.1,1,1.5,1.7
			c0.6,0.9,1.2,1.8,2,2.6c0.4,0.4,0.7,0.8,1.1,1.2c0.3,0.4,0.6,0.9,0.7,1.4c0.3,0.6,0.6,1.2,0.9,1.7c0.5,0.6,1.3,1,1.7,1.7
			c0.9,0.9,1.8,1.7,2.6,2.6C95.1,154.1,96.7,153.8,97.5,155z"/>
		<path class="st159" d="M115,147.2c0,0.3,0,0.5,0,0.8c0.3,0.4,0.3,0.8,0,1.1c-3.7,1.5-7.3,2-11-0.2c-0.4-0.5-0.7-1.1-0.4-1.8
			c-0.8-1-2.2-1.7-1.7-3.2c0.8-2.5-0.5-4.4-1.8-6.3c0.9-0.8,1.7-0.6,2.6,0c0.6,0,1.2,0,1.7,0c0.6,0.2,1,0.5,1.2,1.2
			c0.1,1.6-1.2,3.2-0.5,4.9c0.3,1.1,1.1,1.7,2.1,2.2c1.8,1.4,3.4,0.7,5-0.4C113.2,146,114.1,146.6,115,147.2z"/>
		<path class="st160" d="M97.5,137.6c-0.7,1.3-1.7,2.4-2.9,0.8c-1.1-1.5-3.7-2.2-3.1-4.7c0.3-1.1,1.1-0.7,1.7-0.3
			c1.2,0.8,2.3,1.7,3.4,2.5C97.4,136.2,98,136.7,97.5,137.6z"/>
		<path class="st161" d="M72.2,125.5c1.7,1,2.7,3.4,5.2,2.6c0.5,0.9,2.3,1,1.7,2.6c-0.2,2.3-1.5,1.4-2.6,0.9
			c-1.2-0.1-2.1-0.8-3.1-1.5c-0.8-0.7-1.4-1.4-1.8-2.4C71.4,126.9,71.5,126.1,72.2,125.5z"/>
		<path class="st162" d="M97.5,137.6c-0.3-0.6-0.6-1.2-0.9-1.7c2.7-1.7,4.8-1.4,6.1,1.7c-0.9,0-1.7,0-2.6,0
			C99.3,137.6,98.4,137.6,97.5,137.6z"/>
		<path class="st163" d="M88.8,147.2c-0.3-0.3-0.6-0.6-0.9-0.9c0.1-0.8-0.1-1.7,0-2.5c0-0.3,0.1-0.7,0.1-1c0.2-0.9,0.6-1.6,1.2-2.3
			c0.1-0.1,0.3-0.2,0.4-0.3c3.7,0.1,1.1,2.4,1.3,3.7C89,144.2,90.2,146.6,88.8,147.2z"/>
		<path class="st163" d="M84.4,142c-0.7-0.4-0.8-1-0.9-1.7c2-0.1,4.1-4.4,6.1,0l0,0c-0.7,0.7-1.6,1.2-2.4,1.7
			C86.3,142.4,85.4,142.9,84.4,142z"/>
		<path class="st164" d="M97.5,155c-1.4-0.2-3.2,0.6-3.5-1.7c1.7-1.1,3.5-1.1,5.2,0C98.7,153.9,98.1,154.4,97.5,155z"/>
		<path class="st165" d="M91.4,150.7c-1.1,0-1.7-0.6-1.7-1.7c1.7,0.4,3.5,0.8,5.3,1.2C93.8,151.1,92.6,150.5,91.4,150.7z"/>
		<path class="st166" d="M79.2,130.7c-0.5-0.9-1.9-1.2-1.7-2.6c0.6,0,1.2,0,1.7,0C81.9,129,80.6,129.8,79.2,130.7z"/>
		<path class="st167" d="M103.6,147.2c0.3,0.3,0.6,0.6,0.9,0.9c0.7,1.8,0.1,2.4-1.7,1.7c-0.3-0.3-0.6-0.6-0.9-0.9
			C101.9,147.8,102.5,147.2,103.6,147.2z"/>
		<path class="st168" d="M97.5,128.1c0.9,1.1,1.7,2.3,2.6,3.4C98.2,131.2,96.5,130.7,97.5,128.1z"/>
		<path class="st169" d="M74,129.8c1.3,0,2.1,0.6,2.6,1.7c0,0.6,0,1.1,0,1.7c-0.3,0-0.6,0-0.9,0c-0.3-0.3-0.6-0.5-0.8-0.8
			C74.4,131.6,73.5,131,74,129.8z"/>
		<path class="st170" d="M105.4,138.5c-0.3-0.3-0.6-0.6-0.9-0.9c0.3-0.3,0.6-0.6,0.9-0.9c0.6,0.3,1.1,0.6,1.7,0.9
			c0,0.6,0.1,1.1,0.1,1.7C106.1,139.9,105.8,139.2,105.4,138.5z"/>
		<path class="st171" d="M89.7,101.2c0-1.2-0.1-2.3-1.5-2.7c-1-0.3-1.4-1.2-0.6-2c0.8-0.8,1.5-0.2,2.1,0.5c2.5,2.5,1.5,5.6,1.7,8.6
			c0,0.9,0,1.7,0,2.6c-1.3,1.2-3,1-4.5,1.2c-0.7,0-1.4,0.2-2.1,0.2c-2.4,0.3-3.8-0.2-2.4-3c0.5-0.9,0.3-2,0.4-2.9
			c0.5-0.9,0-2.2,1.3-2.7c1.5,0.3,1,2.2,2.1,2.9c1.5,1.2,2.9,1.6,3.5-0.9C89.1,102.3,89.1,101.7,89.7,101.2z"/>
		<path class="st172" d="M83.6,103.8c1,1.9-0.2,3.4-1.3,4.8c1.6,0.8,2.6-0.6,3.9-0.4c0.8,1.2,2.7,0.5,3.5,1.7c0,0.3,0,0.6,0,0.9
			c-0.8,1.1-2.7,1-3,2.6c-0.3,0.7-0.7,1.4-1.4,1.7c-1.7,0-1.7,4.2-4.4,1.7c1.3-3-1.1-5.2-1.7-7.8c1.4-1.2,2.1-2.6,1.7-4.4
			c0,0,0,0,0,0C81.8,104.2,82.4,103.3,83.6,103.8z"/>
		<path class="st173" d="M94.1,115.1c-0.6-1-1.7-0.8-2.6-0.9c-0.3-0.3-0.5-0.7-0.4-1.1c3.6-2.8,8-4.2,11.9-6.6
			c0.2,0.1,0.5,0,0.7-0.1c0.5-0.5,1.1-0.5,1.7,0c0.6-0.2,1.3-0.4,3-1C103.9,110.5,99.2,113.1,94.1,115.1z"/>
		<path class="st172" d="M102.9,106.4c-3,3.8-7.7,4.5-11.5,6.8c-0.4,0.6-1.1,0.7-1.7,0.8c-0.7,0-1.3-0.1-1.8-0.6
			c-0.2-2.7,2.5-1.7,3.6-2.8c1.7-0.6,3.7-0.4,5.2-1.7c0.1-0.5,0.4-0.8,0.9-0.9C99.2,107.3,100.8,106.1,102.9,106.4z"/>
		<path class="st174" d="M108.9,96.8c-0.3,0.3-0.6,0.6-0.9,0.9c-2.5-2.2-1.8-5.2-2-7.9c-0.2-2.9,1.6-1.7,2.8-0.8c0,0,0,0,0,0
			C109.5,91.6,109.5,94.2,108.9,96.8z"/>
		<path class="st175" d="M99.3,83.8c-0.4,1.6-0.8,2.1-1.7,1.5c-1.8-1.2-3.5-2.5-1.8-5c0.5-0.6,0.9-1.4,1.9-0.9
			C98.4,80.8,98.1,82.6,99.3,83.8z"/>
		<path class="st176" d="M83.6,103.8c-0.9,0.3-1.8,0.6-2.6,0.9c1.3-1.9,2.4-3.8,2.7-6.1c0.8-1.2,1.7-2.3,2.5-3.5
			c0.5,2.1-0.6,3.7-1.7,5.3c0.2,0.2,0.3,0.4,0.2,0.6c-0.1,0.2-0.2,0.3-0.2,0.3C83.4,101.8,83.6,102.8,83.6,103.8z"/>
		<path class="st177" d="M99.3,83.8c-3.5-0.3-2-2.6-1.7-4.3c0.3-0.3,0.7-0.4,1.1-0.4c1,0.3,2,0.8,1.5,2.2
			C101.1,82.5,99.8,83,99.3,83.8z"/>
		<path class="st178" d="M105.3,106.3c-0.6,0-1.1,0-1.7,0c-0.3-1.6,0.8-2.5,1.7-3.5c0-1.3,0.6-2.1,1.7-2.6c0.3-0.3,0.6-0.6,0.9-0.9
			c0,0.9,0,1.7,0,2.6C107.5,103.7,105.4,104.4,105.3,106.3z"/>
		<path class="st179" d="M91.4,110.7c-1.2,0.9-2.3,1.7-3.5,2.6c-0.2,0.3-0.5,0.4-0.9,0.5c-0.4,0-0.6-0.2-0.9-0.4
			c-1-3.7,2-2.2,3.5-2.6C90.2,110.7,90.8,110.7,91.4,110.7z"/>
		<path class="st180" d="M89.7,109.8c-1.4-0.2-3.2,0.6-3.5-1.7c1.7,0,3.5,0,5.2,0C92.1,110,90.6,109.6,89.7,109.8z"/>
		<path class="st181" d="M107.1,100.3c-0.6,0.9-1.2,1.7-1.7,2.6c-1.3-0.7-2.1-1.5-0.9-3C105.6,98.3,106.3,99.7,107.1,100.3z"/>
		<path class="st182" d="M89.7,101.2c0,0.6,0,1.2,0,1.7c-0.9,0.2-1.9,1.3-2.5-0.2c-0.3-0.9-0.6-2.1,0.5-2.7
			C88.7,99.4,88.9,100.9,89.7,101.2z"/>
		<path class="st183" d="M100.1,81.2c-0.3-0.8-0.9-1.4-1.7-1.7c-0.5-0.6-0.5-1.2,0-1.7c0.3,0,0.6,0,0.9,0c0.9,0,1.7,0.1,2.6,0.1
			c-0.6,1-1,2.1-0.9,3.4c0,0-0.4,0-0.4,0L100.1,81.2z"/>
		<path class="st184" d="M97.5,108.1c-0.3,0.3-0.6,0.6-0.9,0.9c-0.7-0.1-1.3-0.3-2-0.4c0.1-0.4,0.1-0.9,0.3-1
			C95.9,107.1,96.8,107.1,97.5,108.1z"/>
		<path class="st185" d="M84.4,101.1c0-0.3,0-0.5,0-0.8c2.3,0.3,1.5,2.1,1.7,3.5C84.4,103.7,84.4,102.4,84.4,101.1z"/>
		<path class="st186" d="M98.4,77.7c0,0.6,0,1.2,0,1.7c-0.3,0-0.6,0-0.9,0c-0.6,0.3-1.2,0.6-1.8,0.9C95.9,78.7,96.7,77.8,98.4,77.7z
			"/>
		<path class="st187" d="M102.8,96c0.3,0.5,0.7,0.8,0.7,1.1c0,0.2-0.4,0.5-0.6,0.8c-0.3-0.3-0.7-0.5-0.7-0.9
			C102.1,96.8,102.5,96.5,102.8,96z"/>
		<path class="st188" d="M57.3,85.5c-0.3,0.6-0.6,1.2-0.8,1.8c-2.6-0.5-2.6-3.1-3.9-4.7c-0.4-0.9-0.6-1.8-0.9-2.8
			c-0.1-0.4-0.1-0.8-0.1-1.2c0.1-0.4,0.2-0.7,0.5-1.1c0.4-0.2,0.7-0.2,1,0.1C54.5,80.3,55.9,82.9,57.3,85.5z"/>
		<path class="st189" d="M72.3,71.5c0,0.3-0.1,0.6-0.1,1c-2.1,1.4-4.6,1.1-6.9,1.1c-0.5,0-0.9,0-1.4-0.1c-0.7-0.1-1.4-0.3-2-0.6
			c-0.8-0.5-1.3-1.3-1.1-2.3c0.2-0.2,0.4-0.4,0.6-0.6C64.7,72.6,68.7,70.7,72.3,71.5z"/>
		<path class="st190" d="M60.7,70.7c0.4,0.6,0.7,1.2,1.1,1.8c0,0.7-0.3,1.3-0.9,1.7c-0.9,0.6-0.8,1.2,0.1,1.8
			c-0.1,0.3-0.1,0.6-0.2,1C57,74.9,58.5,72.8,60.7,70.7z"/>
		<path class="st191" d="M53.1,77.7c-0.3,0-0.6,0.1-0.9,0.1c-2.1-1.2-2.4-3.2-2.6-5.3c0.7-1,1.8-0.8,2.8-0.7
			C51.6,73.9,52.5,75.7,53.1,77.7z"/>
		<path class="st192" d="M93,156c8.2,0,16.5-0.1,24.7,0c1.4,0,2.8,0.4,4.2,0.7c0.7-1.1,1.7-1.7,3-1.8c1.9,0,4-0.4,5.6,1.1
			c0,0.3,0,0.7-0.1,1c-0.7,1.4-2,1.6-3.3,1.6c-9.8,0-19.6,0.1-29.4,0c-1,0-2-0.3-2.9-0.8c-0.6-0.3-1.2-0.6-1.8-0.8
			C93.1,156.5,93.1,156.2,93,156z"/>
		<path class="st78" d="M57.6,124.5c0,7.5,0,15,0,22.5c0,0-0.2,0.2-0.2,0.2c-1.1,0.3-1.7-0.3-2.2-1.1c-0.2-0.4-0.3-0.9-0.4-1.3
			c-0.1-1.2,0-2.4,0.3-3.6c0.8-6.6-0.1-13.3,0.5-19.9c0.3-1,0.5-2.1,2-2.1C59,121,57.9,122.8,57.6,124.5z"/>
		<path class="st193" d="M66.1,121.1c0.3,0.9,0.5,1.8,0.8,2.6c-1.4-0.9-2.7-1.8-4.1-2.7c-2-0.7-4.1-1.2-5.8-2.7
			c-0.1-0.5-0.1-0.9,0.1-1.4c2.9-2,5.4-2,7.2,1.5c0,0.7,0.2,1.4,0.9,1.7C65.7,120.4,66,120.7,66.1,121.1z"/>
		<path class="st194" d="M57.4,118.6c2.4-0.4,4.1,0.5,5.4,2.5c-2,0.8-4.2,1.3-5.3,3.5c0-1.7-0.1-3.4-0.1-5.1
			c-0.2-0.2-0.3-0.4-0.2-0.5C57.3,118.7,57.4,118.6,57.4,118.6z"/>
		<path class="st195" d="M66.9,123.8c0.9,0.3,1.8,0.6,2.7,0.8c0.9,0.8,1.7,1.6,2,2.8c0.1,0.4-0.1,0.7-0.5,0.9
			C69.2,127.3,67.5,126.1,66.9,123.8z"/>
		<path class="st195" d="M74,129.8c0.3,0.9,0.6,1.7,0.9,2.6c-1.8-0.9-3-2.3-3.7-4.2c0,0,0.3-0.3,0.3-0.3c0.3-0.4,0.6-0.4,0.8,0
			C72.8,128.7,73.4,129.2,74,129.8z"/>
		<path class="st196" d="M70.5,157.7c0.5,2.4-1.5,1.6-2.4,1.7c-14.6,0.1-29.3,0-43.9,0c-1.4,0-2.6-0.1-3.2-1.6
			c3.5-1.2,7.1-0.3,10.6-0.4c12.4-0.4,24.8-0.1,37.3-0.1C69.5,157.2,70,157.3,70.5,157.7z"/>
		<path class="st197" d="M70.5,157.7c-16.5,0-33,0-49.5,0.1c0-0.3-0.1-0.6-0.1-0.9c16.5,0,33-0.1,49.6-0.1
			C70.4,157.1,70.5,157.4,70.5,157.7z"/>
		<path class="st2" d="M52.1,78.6c0,0.3,0,0.6,0,0.8c-0.4,0.4-0.8,0.5-1.3,0.5c-1,0.4,0.4,0.7,0.1,1.1c0,1.9-1.3,3.5-1.6,5.3
			c-0.3,7.2-1.1,14.4,0.5,21.5c0.7,1.2,1.1,2.5,1.1,3.9c-0.2,1.6-0.3,3.2-0.9,4.7c-1.7,2.8-0.8,5.8-1.1,8.8c0,4.1,0,8.1,0,12.2
			c0,0.6,0,1.1-0.2,1.7c-0.4,1.1-0.3,1.7,1.1,1.5c0.5,0.7,0.5,1.5,0.2,2.2c-0.2,1.1-2.4,2.4,0.5,3c0.9,0.2,1.8,0.5,2.5,1.1
			c0.6,0.6,1.1,1.3,2.1,1c1.3,0.1,1.6,1.3,2.3,2c0.7,0,1.4,0.2,1.7,0.9c-1.8,1.8-4.1,0.3-5.7,0.9c1.1,0.4,3.3-1.1,4.1,1.5
			c-1,1.3-2.5,1.3-3.9,1.3c-5,0-10.1,0.3-15.1-0.2c-0.7-0.2-1.4-0.5-2-1c-2-2.6-2.6-5.5-1.8-8.7l0,0c0.9-1.8,0.2-3.8,0.5-5.6
			c0-0.4,0.2-0.9,0.4-1.3c1.2-3.3,0.4-6.7,0.6-10.1c0.2-14.1-0.4-28.2,0.3-42.3c0,0-0.3-0.1-0.4-0.1c-0.1,0-0.2,0.2-0.3,0.3
			c-0.3,0.2-0.7,0.1-1-0.1c0.3-3-0.1-5.8-2.6-7.8c0.4-3,2.7-3.9,5.2-4.1c3.3-0.3,6.6-0.7,9.9-0.4c0.4,0.1,0.9,0.1,1.3,0.3
			C51.2,74.2,50.6,77.1,52.1,78.6z"/>
		<path class="st198" d="M34.7,85.5c0.3,0,0.6,0,0.9,0c1.3,1.5,0.8,3.3,0.9,5c0,12.4,0,24.9,0,37.3c-0.4,3.6,0.9,7.2-0.9,10.7l0,0
			c-0.3,0.4-0.6,0.4-0.9,0c-1.4-1.3-0.8-3-0.8-4.5c0-11.1-0.1-22.2,0-33.3C34,95.6,34.4,90.6,34.7,85.5z"/>
		<path class="st199" d="M34.7,144.6c-0.3,2.8,1.5,5.1,1.7,7.8c-1.2,1.1-2.5,0.4-3.7,0.2c0.6,0.7,2.5-0.2,2.1,1.7
			c-0.7,0.7-1.5,0.9-2.4,1.1c-2.1-0.2-4.3,0.5-6.4-0.4l0,0c-0.4-0.6-0.1-1.1,0.2-1.6c0.3-0.3,0.6-0.5,0.9-0.7
			c0.7-0.2,1.3-0.4,1.6-1.2c0.6-0.3,1.1-0.6,1.7-0.9c2.5,0.2,3.6-1,3.5-3.4C33.8,146.3,33.8,145.3,34.7,144.6z"/>
		<path class="st200" d="M47.8,74.2c-3.5,0-6.9,0.1-10.4,0.1c-2.5,0-3.6,2.2-5.3,3.3c-0.9-0.6-1.7-1.1-2.6-1.7c-0.8-2-1.7-0.2-2.6,0
			c-0.3,0-0.6,0-0.9,0c-0.9,0.7-1.8,0.8-2.7,0.1c0.2-2.1,2-2.7,3.5-3.5c5.9-0.2,11.8-0.1,17.7-0.1C45.8,72.5,47.6,72.1,47.8,74.2z"
			/>
		<path class="st201" d="M32,82.9c-0.5-0.3-1.1-0.6-1.6-0.9c-2.2-1.4-4.6-2.1-7.1-2.7c-1.4-0.3-3.1-0.7-2.1-2.9
			c1.6,0,3.3-0.5,4.9,0.4l0,0c1.8,0.8,3.6,1.3,5.1,2.6C31.4,80.6,31.7,81.8,32,82.9z"/>
		<path class="st202" d="M26.9,75.9c0.7-1.6,2-1.9,3.5-1.5c0.4,0.1,0.7,0.7,1,1.1c-0.7,0.2-1.3,0.3-2,0.5
			C28.6,76,27.8,75.9,26.9,75.9z"/>
		<path class="st203" d="M31.2,79.5c-1.9-0.5-3.7-1.2-5.1-2.6C28.2,76.9,30.1,77.4,31.2,79.5z"/>
		<path class="st199" d="M34.7,138.5c0.3,0,0.6,0,0.9,0c-0.3,2,0.8,4.3-0.9,6.1C34.7,142.6,34.7,140.5,34.7,138.5z"/>
		<path class="st204" d="M26,76.8c-1.7,0-3.5,0-5.2,0c-0.3,0.4-0.5,0.4-0.7,0c-0.1-0.3-0.2-0.5-0.2-0.8c0.9,0,1.8-0.1,2.7-0.1
			c0.3-0.4,0.6-0.4,0.9,0c0.9,0,1.7,0,2.6,0.1C26,76.3,26,76.5,26,76.8z"/>
		<path class="st205" d="M207.4,132.5c-4.3,0-8.7,0.3-11.2-4.4c4.6,2,9.2,1.1,13.7-0.3c0.2,0.1,0.4,0.1,0.6,0.2
			c1.2,0.6,2.4,1,1.2,2.7C210.2,131.2,208.8,131.8,207.4,132.5z"/>
		<path class="st206" d="M196.1,124.6c0-0.3-0.1-0.5-0.1-0.8c0.2-5.5,2.4-8.5,6.5-9c1-0.1,1.3,0.2,1.3,1.1c-1.3,0.2-3.2-0.5-3.5,1.8
			c0,0.7-0.3,1.3-0.9,1.8C198,120.9,200.2,124.8,196.1,124.6z"/>
		<path class="st207" d="M203.9,115.9c0.6-0.3,1.2-0.5,1.8-0.8c0.4,0.5,0.5,1,0.5,1.6c-0.2,1.3-0.5,2.5-0.4,3.8
			c0.1,0.7,0.2,1.3,0.7,1.8c1,1,2.6,1.1,3.7,2.1c0.2,0.4,0.1,0.7-0.2,1C203.8,125.1,202.8,123.5,203.9,115.9z"/>
		<path class="st208" d="M209.9,127.8c0.3-0.5,0.6-1.1,0.9-1.6c0.4-0.5,0.8-1,1.5-1.1c1.1,0,1.6,0.6,1.6,1.7c-0.8,1.9-2,2.4-3.8,1.3
			L209.9,127.8z"/>
		<path class="st209" d="M211.8,125.3c-0.3,0.3-0.7,0.6-1,0.8c-0.3-0.2-0.5-0.5-0.8-0.7c0-0.4,0-0.8-0.1-1.2
			c0.5-1.4,1.4-1.9,2.9-1.4C213.4,124.1,212.9,124.8,211.8,125.3z"/>
		<path class="st210" d="M199.5,119.4c0-0.7,0.2-1.4,0.9-1.8c1,0.7,1.2,1.8,0.7,2.5C200.5,120.9,200.2,119.5,199.5,119.4z"/>
		<path class="st211" d="M244.8,84.7c1.4,1.1,0.9,2.7,0.9,4c0,9.3,0,18.7,0,28c-0.5,0.3-0.9,0.3-1.4,0c-1.9-1.7-1.4-3.9-1.5-6.1
			c-0.4-5.1,0.9-10.3-0.8-15.4c-0.7-2.4-0.7-2.4-3.2-2.5c-0.5-0.5-0.6-1.1-0.5-1.7c0.6-1.4,2.1-1.9,3.1-2.9
			C242.9,87.4,242.5,84.7,244.8,84.7z"/>
		<path class="st212" d="M244.8,84.7c-1.3,1.2-0.9,3.4-2.6,4.3c-1.2-0.4-2.7-3.1-3.6,0.3c-0.6,0.2-1.2,0.2-1.6-0.3
			c0-0.6,0-1.1,0-1.7c-0.7-1.5-2-2.2-3.6-2.6c-0.3,0-0.6,0-0.8-0.1c0.9-2.8,3.3-1.4,5-1.6c1.8-0.2,3.6-0.1,5.5-0.1
			C244.2,83,245.8,82.5,244.8,84.7z"/>
		<path class="st213" d="M245.7,122.9c0.3,0.9,0.6,1.7,0.9,2.6c-0.6,1.5-1.7,1.8-3.1,1.3c-1.3-1.1-0.4-2.7-1-3.9
			c-0.3-1.1-0.7-2.3-0.4-3.5c0.6-0.9,1.3-1.6,2.3-2c0.4,0,0.8,0.2,1,0.6C245.5,119.6,244.8,121.3,245.7,122.9z"/>
		<path class="st214" d="M243.1,126.4c1.3,0.1,2.4-0.3,3.5-0.9c1.4,0.8,0.3,1.7,0,2.5c-0.9,0-1.8-0.1-2.7-0.1
			c-0.4-0.2-0.8-0.3-1.1-0.7C242.8,126.8,242.9,126.6,243.1,126.4z"/>
		<path class="st215" d="M245.7,122.9c-1.5-1.5-0.6-3.5-0.9-5.2c-0.2-0.2-0.3-0.4-0.2-0.6c0.1-0.2,0.1-0.3,0.2-0.3
			c0.3,0,0.5,0,0.8,0C245.7,118.8,245.7,120.8,245.7,122.9z"/>
		<path class="st216" d="M150,112.4c3.6,8.5-0.9,16.3-11.6,20c-0.8-0.4-1.4-0.9-1.4-1.9c0.1-1.1,0.6-2,1.4-2.7
			c2.3-1.3,4.8-2.3,6.7-4.2c2.3-2.1,3.5-4.7,3.5-7.9C148.8,114.5,148.7,113.2,150,112.4z"/>
		<path class="st48" d="M138.5,128.3c-0.3,0.8-0.6,1.6-0.9,2.4c-0.3,0.9-1.4,1-1.7,1.8c-1.8,1.2-3.5,1.2-5.2,0
			c-0.6-0.6-1.2-1.1-1.2-2c0.5-1.6,2.1-1.5,3.3-2c0.4-0.1,0.7-0.2,1.1-0.3c1.1-0.1,2.1-0.2,3.2-0.4c0.4-0.1,0.7,0,1.1,0.1
			C138.3,128,138.4,128.1,138.5,128.3z"/>
		<path class="st135" d="M150,112.4c-0.1,4.6,0,9.3-4.6,12.2c-0.5-0.5-0.7-1.1-0.7-1.8c0.3-2.3,2-3.9,2.7-6c0.8-2.6-0.7-5.7,1.6-8
			C150.1,109.8,149.7,111.2,150,112.4z"/>
		<path class="st217" d="M129.8,130.7c0.7,0.4,0.8,1,0.8,1.7c-2.3,0.3-4.2-0.7-6.1-1.8c-0.6-1.1-2.3-1.2-2.5-2.7
			c0.6-0.6,1.4-0.7,2.2-0.7c0.4,0,0.8,0.1,1.1,0.3c0.5,0.2,1,0.6,1.4,0.9C127.8,129.2,129,129.6,129.8,130.7z"/>
		<path class="st218" d="M149.1,108.8c-0.7,2.9,0.8,6.1-1,8.9c-0.2-0.2-0.3-0.3-0.5-0.5c-1.1-2.3-0.6-4.8-0.5-7.2
			c0.1-0.7,0.4-1.4,1.1-1.9c0.3,0,0.6,0,0.9,0C149.1,108.3,149.1,108.5,149.1,108.8z"/>
		<path class="st219" d="M135.9,132.5c-0.4-1.6,1.2-1.2,1.7-1.8c0.3,0.5,0.6,1.1,0.9,1.6C137.6,132.4,136.7,132.4,135.9,132.5z"/>
		<path class="st220" d="M20.1,76.8c0.2,0,0.5,0,0.7,0c1.4,2.7,4.6,1.6,6.6,3.2c0.9,0.7,2.4,0.6,3,2c-2.4-0.6-4.9-1.2-7.3-1.8
			C21.2,79.8,20,78.9,20.1,76.8z"/>
		<path class="st221" d="M151.7,85.7c1,1.9,0.6,3,0.6,4.9C151.3,88.7,151.7,87.6,151.7,85.7z"/>
		<path class="st222" d="M211.7,84.7c0,2-0.1,4-0.1,6C210.5,88.6,210.4,86.6,211.7,84.7z"/>
		<path class="st223" d="M134,70.2c2.2-1.3,3.5-1.6,5.2-0.3C137.5,71,136.2,70.8,134,70.2z"/>
		<path class="st224" d="M199.5,78.5c0.6,0.3,1.1,0.7,1.7,1c0.6,1.4,1,2.8-0.2,4.1l0,0c-1.5,1-3.2,1.3-3.5-0.9
			C197.4,81.3,195.7,78.3,199.5,78.5z"/>
		<path class="st225" d="M199.5,78.5c-3.2,0.2-2.2,2.6-1.9,4.2c0.3,2.3,2.2,0.9,3.5,0.9c-0.2,0.4-0.4,0.8-0.6,1.1
			c-3.7,0.5-3.8-1.8-3.6-4.4C197,78.4,197.3,77,199.5,78.5z"/>
		<path class="st225" d="M201,83.6c0.5-1.4,0.7-2.7,0.2-4.1c0.3,0,0.7,0,1,0C202,80.9,203.1,82.7,201,83.6z"/>
		<path class="st226" d="M184.7,91.5c0-1.1,0-2.2,0-3.4c0-2.6,0-5.1,0-7.7c0.2,0,0.4,0,0.6,0c0,3.7,0,7.4,0,11.1
			C185.1,91.5,184.9,91.5,184.7,91.5z"/>
		<path class="st227" d="M123.5,79.7c0,4,0,7.9,0,11.9c-0.1,0-0.3,0-0.4,0c0-4,0-7.9,0-11.9C123.2,79.7,123.3,79.7,123.5,79.7z"/>
		<path class="st213" d="M243.1,127.2c0.3,0.2,0.5,0.5,0.8,0.7c-2.3,0-4.6,0-6.9,0c0-0.2,0-0.5,0-0.7c0.2-0.2,0.3-0.3,0.5-0.5
			c0.6-0.3,1.2-0.5,1.9-0.5C240.7,126.1,242,126.2,243.1,127.2z"/>
		<path class="st228" d="M69.6,154.2c-0.4,2.4-2.4,1.7-3.8,1.7c-9.8,0-19.6,0-29.4-0.1c-0.1-1,0.6-1.3,1.4-1.5
			c6.9-0.6,13.8,0.6,20.7-0.6c2.6-0.2,5.1,0.3,7.7,0.2C67.4,153.8,68.5,153.7,69.6,154.2z"/>
		<path class="st229" d="M26,155c2.3,0,4.7,0,7,0c1.1-0.4,2.2-1.2,2.6,0.8c-3.2,0-6.4,0-9.5,0C26,155.6,26,155.3,26,155z"/>
		<path class="st230" d="M69.6,154.2c-0.9,0.3-1.7,0.6-2.6,0.9c-0.3-1-2.1-1.1-1.7-2.6c0.6,0,1.2,0,1.8-0.1
			C68.3,152.4,69.2,153,69.6,154.2z"/>
		<path class="st231" d="M35.6,155.8c-0.7-0.9-1.7-0.7-2.6-0.8c0.4-0.7,1-0.8,1.7-0.9c0.4-0.5,1-0.7,1.6-0.6
			c0.4,0.1,0.8,0.3,1.1,0.5c0.2,0.4,0.2,0.7-0.1,1c-0.3,0.3-0.6,0.5-0.9,0.8C36.2,155.8,35.9,155.8,35.6,155.8z"/>
		<path class="st232" d="M169,85.5c0.1-0.2,0.2-0.4,0.2-0.6c0-0.1-0.1-0.2-0.1-0.3c0.5-1.1,1.1-2.1,1.6-3.1c2.1,0.3,1.3,2.4,2.4,3.2
			c1.1,0.8,0.6,1.8-0.3,1.8C171.5,86.7,169.7,87.9,169,85.5z"/>
		<path class="st233" d="M169,85.5c1.6,1.2,3.3,2.7,4.1-0.8c1.7,1.4,1.2,2.3-0.8,2.5c-1.4,0.2-2.8,0-4.2,0
			C168.2,86.5,168.3,85.9,169,85.5z"/>
		<path class="st234" d="M211.8,125.3c0.2-0.9,0.4-1.8,0.6-2.7c-0.1-0.4-0.1-0.7,0-1.1c0.3-0.7,0.6-1.4,1.4-1.6
			c0.4,0,0.7,0.1,1.1,0.3c1,0.9,1.8,1,2.7-0.2c0.8-0.7,1.6-1.4,1.4-2.7c0-0.6,0.1-1.1,0.5-1.6c0.4-0.2,0.7-0.2,1,0.1
			c1.2,1,0.8,2.4,0.8,3.6c0,3.9,1.4,6.7,5.4,7.7c-0.1,0.3-0.2,0.6-0.3,0.9c-0.3,0-0.5,0.1-0.7,0.2c-3.3,1.8-6.6,2.2-10.1,0.6
			c-1.4-0.2-1.8-1.3-2.1-2.5C213.2,125.6,212.6,125.4,211.8,125.3z"/>
		<path class="st235" d="M220.5,115.9c-0.3,0-0.6,0-0.9,0c-0.9,0.1-1.6-0.2-2.1-0.9c-0.7-3.1,0.3-6.7-2.6-9.1
			c-0.6-1.5-0.9-3.3-2.5-4.3c-0.9-1.1-1.3-2.1,0.3-2.9c2.3,1.1,4.7,2.3,7,3.4c1.2,1.5,1.1,3.5,1.7,5.2c-0.4,1.5-0.9,2.9,0,4.4
			C221,113,220.7,114.5,220.5,115.9z"/>
		<path class="st236" d="M221.3,111.6c-1.3-1.5-1.3-2.9,0-4.4C222.1,108.7,220.9,110.1,221.3,111.6z"/>
		<path class="st237" d="M156.8,101.1c2.4-2.6,10.4-2.5,11.4,0.1c0,0,0,0,0,0c-0.5,0.3-0.6,0.9-1,1.3c-0.9,0.7-1.8,1.4-2.8,1.9
			c-0.8,0.3-1.5,0.4-2.3,0.4c-0.4,0-0.8,0-1.2-0.1C158.8,104.2,158.6,101.8,156.8,101.1z"/>
		<path class="st238" d="M156.8,101.1c2.2-0.3,2.3,2.6,4.3,2.6c0.9,1.2,0.3,2-0.8,2.6c-0.5-0.3-1.1-0.6-1.6-1
			C158.8,103.6,157.6,102.5,156.8,101.1z"/>
		<path class="st239" d="M237,89c0.6,0,1.1,0,1.7,0c0.5,0.6,0.5,1.2,0,1.7c0,0.6,0,1.2,0,1.7c0.5,0.6,0.9,1.2,1,1.9
			c0.1,0.7,0.1,1.5,0.1,2.2c-1.1,6.9-1.2,13.7-0.4,20.6c0.3,1.2,0.3,2.4,0.1,3.6c-0.9,2.1,0.1,4.9-2.6,6.3c0,0,0,0,0,0
			c-0.3-0.1-0.8-0.2-0.8-0.2C238.1,114.4,236.5,101.7,237,89z"/>
		<path class="st239" d="M233.4,84.7c1.9-0.2,3.5,0.2,3.6,2.6c-0.3,0-0.6,0-0.9,0C235.7,85.9,234.3,85.6,233.4,84.7z"/>
		<path class="st240" d="M95,157.6c9.9,0,19.7,0,29.6,0c2,0,4.1,0.3,6-0.7c0.8,0.8,0.6,1.6,0.1,2.4c-10.4,0-20.8,0-31.2,0
			C97.7,159.4,95.8,159.7,95,157.6z"/>
		<path class="st241" d="M130.6,155.9c-2,0-4,0-6.1,0c0.6-3.1,3.7-1.3,5.2-2.5c0.2,0,0.5,0,0.8-0.1
			C130.5,154.2,130.6,155,130.6,155.9z"/>
		<path class="st242" d="M207.3,110.7c-0.4,0.8-1,0.8-1.7,0.6c0-1.7-0.1-3.4-0.1-5c0-1.4,0.2-2.8-0.8-4c-0.8-1,0.2-1,0.8-1.2
			c1.5-0.4,2.9-1,4.4-1.3c0.4,0,0.8,0.1,1.2,0.2c0.4,0.5,0.9,0.9,1.2,1.4c0.7,1.1,1.3,2.2,0.3,3.5
			C209.3,105.5,206.9,106.9,207.3,110.7z"/>
		<path class="st32" d="M196.9,107.3c-0.5-1.5-1.6-2.9,0-4.4c0,0,0.1,0.1,0.1,0.1c0.7,0.5,0.7,1.5,1.3,2.1c0.6,0.6,1.3,1.1,2,1.5
			c0.8,0.4,1.6,0.8,2,1.6C200.1,109.7,198.4,108.7,196.9,107.3z"/>
		<path class="st243" d="M202.2,108.2c-0.9-0.3-1.8-0.6-2.7-0.9c-0.9-1.4-0.1-2,1-2.5c1.7-0.7,2.6,0.3,3.3,1.6c0,0.3,0,0.7,0.1,1
			C203.5,108,202.9,108.2,202.2,108.2z"/>
		<path class="st244" d="M215.2,128.1c3.5,1.3,7,0.2,10.5,0.2c-0.6,0.8-0.5,1.6-0.1,2.4c-2.6,1.6-5.2,1.1-7.8,0
			c-0.8-0.3-1.7-0.6-2.5-0.9C214.7,129.3,214.7,128.7,215.2,128.1z"/>
		<path class="st245" d="M217.9,130.7c2.6,0,5.2,0,7.8,0c1,1.2-1,1-0.8,1.7C222.1,133.3,219.8,132.8,217.9,130.7z"/>
		<path class="st246" d="M215.2,128.1c0,0.5,0.1,1.1,0.1,1.6c-1.2,0.3-2.4,0.6-3.7,0.9c0.3-1.4-1.3-1.6-1.6-2.6
			c1.4,0.1,2.7-0.1,3.4-1.6C214.1,127,214.6,127.6,215.2,128.1z"/>
		<path class="st247" d="M164.6,136.8c1.2,0,2.1,0.5,2.6,1.7c-0.9,0-1.7,0-2.6,0.1c-0.4-0.3-1-0.6-1.1-1
			C163.4,136.7,164.2,136.9,164.6,136.8z"/>
		<path class="st248" d="M162,140.2c-0.6,0-1.2,0-1.7,0c-0.3-0.8-0.8-1.6,0.7-1.7C162.4,138.4,162.6,139.1,162,140.2z"/>
		<path class="st249" d="M203.9,106.3c-1.7-1-3.5-2.4-4.3,0.9c-0.8-0.3-1.4-0.9-1.7-1.7c0.1-0.5,0.4-0.8,0.9-0.9
			C200.8,104.1,203.4,101.8,203.9,106.3z"/>
		<path class="st250" d="M205.6,98.6c0.3-0.2,0.7-0.5,1-0.7c1.4,0,2.8,0,4.3,0c0,0.2,0,0.5,0,0.7c0.3,0.5,0.2,0.9-0.3,1.2
			c-1.7,0.4-3.3,1-4.9-0.3C205.7,99.2,205.6,98.9,205.6,98.6z"/>
		<path class="st251" d="M210,100.4c-1.4,0.9-2.7,2.1-4.5,0.8c0.1-0.2,0.1-0.4,0.2-0.7C207.1,99.4,208.6,99.7,210,100.4z"/>
		<path class="st120" d="M210,100.4c-1.4,0-2.9,0.1-4.3,0.1c0-0.3,0-0.7,0-1c1.7,0,3.4,0,5.1,0c0.2,0.2,0.3,0.3,0.3,0.5
			c-0.1,0.2-0.1,0.3-0.2,0.3C210.6,100.3,210.3,100.3,210,100.4z"/>
		<path class="st252" d="M198.7,104.6c-0.3,0.3-0.6,0.6-0.9,0.9c-1-0.6-0.8-1.6-0.8-2.5C198.1,102.9,198.6,103.5,198.7,104.6z"/>
		<path class="st253" d="M205.6,122.9c-0.7-0.4-0.8-1.1-0.8-1.8c1-1.5,1.5-3.5,3.9-3.7c-1.2,0.1-2.4,0.4-3.3-0.6
			c0.1-0.6,0.2-1.1,0.3-1.7c0.8-0.1,1.4-0.3,1.8-1c1.8,0.6,3.7-1,5.4,0.3c0.6,1,0.6,2.1,0.1,3.1
			C210.7,119.5,208.6,121.9,205.6,122.9z"/>
		<path class="st254" d="M207.3,110.7c-1.8-5.8-1.3-6.4,5.1-6c0.6,0.4,0.7,0.9,0.4,1.6c-2,0.8-3.9,1.6-3.5,4.3
			c-0.3,0.3-0.6,0.4-1,0.2C208,110.8,207.7,110.8,207.3,110.7z"/>
		<path class="st255" d="M212.4,114.2c-1.6,1.3-3.2,1.1-4.8-0.1c0.5-1.1,1.6-0.5,2.3-1c0.5-0.8,1.1-1.2,2-1.2c0.4,0.1,0.8,0.3,1,0.6
			C213.1,113.3,213.1,113.8,212.4,114.2z"/>
		<path class="st256" d="M211.7,112.2c-0.6,0.3-1.2,0.6-1.8,0.9c-0.5-0.8-1.8-1-1.6-2.3c0.3-0.1,0.5-0.2,0.8-0.3
			c0.6-0.6,1.3-0.5,2.1-0.4c0.4,0.1,0.6,0.4,0.9,0.7C212.2,111.3,212.2,111.8,211.7,112.2z"/>
		<path class="st257" d="M123.7,103.8c1,0.6,0.8,1.7,0.9,2.6c0.3,3.5-0.9,7,0.4,10.5c0.4,0.5,0.7,1,1,1.6c0.2,0.4,0.3,0.8,0.3,1.3
			c0,0.7-0.2,1.3-0.6,1.9c-0.5,0.5-1,0.9-1.7,1c-5.1-0.9-5.8-1.9-5.1-6.9c0.4-2.7,1-5.4,0.7-8.1c-0.2-1.4,0.5-2.5,1.6-3.3
			C121.9,103.8,122.7,103.3,123.7,103.8z"/>
		<path class="st258" d="M124.5,117.7c-0.3-0.2-1-0.5-1-0.8c-0.6-3.6-0.4-7.1,1-10.5c0,0.6,0,1.2,0,1.8
			C126.3,111.3,126.4,114.5,124.5,117.7z"/>
		<path class="st259" d="M134.1,100.1c0.6,0.3,1.2,0.7,1.8,1c0,0.2,0.1,0.4,0.1,0.6c-0.6,1.1-1.6,1.2-2.7,1.3
			c-1.2,0-2.4,0.1-3.6,0.5c-0.6,0.1-1.2,0.1-1.8,0c-0.6-0.3-1.1-0.6-0.7-1.4c0.8-0.6,1.7-1.3,2.5-1.9c0.2,0,0.4,0.1,0.5,0.1
			c1.1,0.1,2.2,0.1,3.3,0C133.8,100.2,134,100.1,134.1,100.1z"/>
		<path class="st260" d="M124.5,117.7c0-3.2,0-6.4,0.1-9.5c0.3,0,0.5-0.1,0.8-0.1c0.2,0.2,0.4,0.4,0.6,0.6c0.9,3.4,1.5,6.7-0.5,10
			C125.1,118.2,124.8,118,124.5,117.7z"/>
		<path class="st260" d="M127.2,102.1c0.2,0.3,0.5,0.6,0.7,1c0.4,1.9-0.7,3.4-1.4,5c-0.3,0.3-0.7,0.3-1.1,0.1c0,0-0.2-0.2-0.2-0.2
			C126.1,106.1,123.9,103.2,127.2,102.1z"/>
		<path class="st261" d="M123.7,103.8c-0.6,0.3-1.2,0.6-1.8,0.9c-1.9,0.7-2.4,0.1-1.7-1.7c0,0,0,0,0,0
			C121.1,104,123.6,99.1,123.7,103.8z"/>
		<path class="st262" d="M129.8,99.5c1.5,0.1,3-0.6,4.4,0.6c0,0-0.1,0.4-0.1,0.4c-1.4,0.3-2.8,0.3-4.2,0c0,0-0.1-0.4-0.1-0.4
			C129.8,99.9,129.8,99.7,129.8,99.5z"/>
		<path class="st263" d="M47.8,74.2c-3.2-1.8-6.7-0.6-10.1-0.8c-3.9-0.2-7.8,0-11.7,0c-0.9,0.7-1.7,0.7-2.6,0c-1.2,0-2.4,0-3.5,0
			c1.6-1.5,3.5-0.5,5.3-0.9c7.8-0.7,15.7-0.6,23.5,0l0,0c0.5,0.6,0.5,1.1,0,1.7C48.4,74.2,48.1,74.2,47.8,74.2z"/>
		<path class="st264" d="M48.7,72.5c-7.8,0-15.7,0-23.5,0c2.8-1.7,5.9-0.8,8.8-0.8C38.8,71.9,43.8,70.7,48.7,72.5z"/>
		<path class="st265" d="M48.7,74.2c0-0.6,0-1.2,0-1.7c0.3,0,0.6,0,0.9,0c1.7,1.4,1.5,3.6,2.6,5.3c0,0.3,0,0.6,0,0.8
			C50,77.9,50.9,74.9,48.7,74.2z"/>
		<path class="st266" d="M105.4,138.5c0.6,0.3,1.2,0.6,1.7,0.9c0.1,3.4,2.1,5.2,5.2,6.1c-1.2,3.7-3,3.5-5.2,0.9
			c-1.1-0.6-2-1.5-2.6-2.6C102.5,141.6,105,140.2,105.4,138.5z"/>
		<path class="st267" d="M158.4,141.5c2.8,0.9,5.4-0.1,8-1.1c0.9,0,1.8,0.2,1.9,1.2c0,1.1-1,1.5-1.8,2.1
			C163.4,144.3,160.3,145.2,158.4,141.5z"/>
		<path class="st268" d="M166.4,143.7c0.8-1.1,1.9-2.2,0-3.3c0.3-0.3,0.6-0.6,0.9-0.9c1-0.1,1.9-0.5,2.9-0.4
			c0.2,0.1,0.4,0.2,0.5,0.3C170.3,141.8,168.9,143.3,166.4,143.7z"/>
		<path class="st269" d="M173.3,136.8c-0.6,0.9-1.1,1.7-1.7,2.6c-0.3,0-0.6,0-0.9,0c0,0,0,0,0,0c-0.5-0.4-0.7-1-0.7-1.7
			c0.1-0.9,0.7-1.4,1.3-2C172.4,135.5,173,135.9,173.3,136.8z"/>
		<path class="st270" d="M183,102.9c0-1.3-0.6-2.1-1.8-2.6c2.5-1.7,5.3-0.5,7.9-0.8c-0.2,0.3-0.5,0.6-0.7,1
			c-1.4,0.9-1.9,2.9-3.7,3.4C184.1,103.5,183.5,103.2,183,102.9z"/>
		<path class="st271" d="M185.6,111.6c-1.4,1.1-1,3.4-2.6,4.3c-0.3-0.3-0.6-0.6-0.7-1c-0.8-3,2.4-5,2.1-7.8c0-0.4,0.1-0.8,0.4-1.1
			c1.2-0.4,2,0,2.5,1.1C187.3,108.9,186.1,110.1,185.6,111.6z"/>
		<path class="st272" d="M187.3,107.2c-0.8-0.3-1.6-0.5-2.5-0.8c-0.7-1.1,0.4-1.8,0.6-2.7c0.4-0.5,0.9-0.8,1.6-0.7
			c1.2,0.1,2.6-0.5,3.5,0.7C190.1,105.6,187.7,105.5,187.3,107.2z"/>
		<path class="st63" d="M186.9,103c-0.4,0.3-0.9,0.6-1.3,0.9c-0.3,0.3-0.6,0.3-0.9,0c0,0-0.1-0.1-0.1-0.1c0.7-1.7,1.8-3,3.7-3.4
			C187.9,101.2,187.4,102.1,186.9,103z"/>
		<path class="st43" d="M184.7,107.2c1.1,3-2.7,4.9-1.8,7.9c-0.6,0.5-1.2,0.5-1.8,0.2c-0.3-0.4-0.3-0.8,0-1.2c0-0.2-0.1-0.5-0.2-0.7
			c1-2,1.9-4,2.9-6C184.1,106.8,184.4,106.8,184.7,107.2z"/>
		<path class="st273" d="M184.7,107.2c-0.3,0-0.6,0.1-0.8,0.1c-0.2-1.3,0.2-2.4,0.9-3.5c0.3,0,0.6,0,0.9,0c-0.3,0.8-0.5,1.7-0.8,2.5
			C184.7,106.7,184.7,106.9,184.7,107.2z"/>
		<path class="st274" d="M177.8,128.1c-0.6,1.4-1.2,2.9-1.8,4.3c-0.4,0.6-0.8,1.4-1.8,1c-0.6-0.6-0.7-1.4-0.5-2.2
			c0.1-0.4,0.2-0.8,0.4-1.1c1-1.9,1.9-3.9,2.1-6.1c0.3-1.1,0.8-2,2-2.4c1.5,0.1,2.3,0.6,1.4,2.1C178.3,125,178.1,126.5,177.8,128.1z
			"/>
		<path class="st275" d="M179.4,123.7c0-1.1-0.5-1.6-1.5-1.8c-0.6-0.8-0.1-1.5,0.3-2.1c1.4-1.3,2-3.2,3-4.8c0.6,0,1.1,0,1.7,0
			c0,0.3,0,0.6,0,0.8C182.2,118.7,180.9,121.2,179.4,123.7z"/>
		<path class="st76" d="M124.6,128.1c-0.8,0-1.7-0.1-2.5-0.1c-1.7-2.4-4.7-3.6-5.5-6.7c0,0,0.2-0.2,0.2-0.2c2.7-1,3,2,4.6,2.8
			c1.1,1,2.7,1.7,3.4,3.2C124.9,127.4,124.8,127.8,124.6,128.1z"/>
		<path class="st276" d="M87.1,113.3c0.3,0,0.5,0,0.8-0.1c0.6,0,1.2,0,1.7,0c0.8,1.2-1.2,2.3-0.1,3.4c0,0.3,0.1,0.6,0.1,0.9
			c-0.6,0-1.2,0-1.8,0c-0.6-0.6-1.3-1.1-1.5-2C86.2,114.8,86.4,114,87.1,113.3z"/>
		<path class="st277" d="M87.1,115.9c0.7,0.4,0.8,1,0.8,1.7c-0.6,0-1.2,0-1.7,0c-0.7-0.4-0.9-1-0.9-1.7
			C85.9,115.4,86.5,115.4,87.1,115.9z"/>
		<path class="st278" d="M108.9,96.8c0-2.6,0-5.2,0-7.8c0.3,0,0.6,0,0.9,0C109.4,91.6,110.5,94.4,108.9,96.8z"/>
		<path class="st279" d="M167.2,102c0.3-0.3,0.7-0.6,1-0.8c-0.4,2.3,1.4,3.6,2.5,5.2c0.2,0.6,0.4,1.2,0.6,1.7
			c0.1,0.9,0.3,1.7,0.4,2.6c-3.1,0.3-2.5-2.9-4-4.1c-0.1-0.1-0.2-0.3-0.4-0.4c-0.3-0.3-0.5-0.6-0.6-1c-0.2-0.6-0.3-1.1-0.3-1.7
			C166.5,103,166.8,102.5,167.2,102z"/>
		<path class="st280" d="M168.1,105.5c2.1,1.1,1.1,4.4,3.6,5.2c0.3,0.8,0.6,1.5,0.9,2.3c0.1,1.8,1,3.1,2.8,3.7
			c0.3,0.3,0.5,0.7,0.7,1c0.5,1.4,1,2.8,0.7,4.3c-0.3,1-0.5,2.1-1.5,2.7c-1.7,0.2-2.1-1.1-2.6-2.6c0,2,1.5,3.1,1.5,4.6
			c0.1,0.6,0,1.2-0.2,1.8c-0.5,1.3-1,2.5-1.9,3.6c-0.2,0.1-0.3,0.2-0.5,0.3c-2.1-1.7,1-4.8-1.8-6.2c-0.1-3.1-2.7-5-3.6-7.8
			c-0.6-1.7-1.2-3.5-1.8-5.2c-0.7-0.4,0-1.5-0.9-1.7c-0.9-1.2-1.7-2.3-2.6-3.5c0-0.7-0.2-1.3-0.8-1.7c0.3-0.9,0.6-1.7,0.8-2.6
			c0.3,0,0.6,0,0.9,0c1.4,1.5,3.8,0.1,5.2,1.7l0,0C167.5,106.4,167.8,106,168.1,105.5z"/>
		<path class="st281" d="M163.8,111.6c0.1-0.5,0.1-1.4,0.7-1.1c1.5,0.7-0.1,1.9,0.2,2.8C163.9,113,163.8,112.3,163.8,111.6z"/>
		<path class="st282" d="M210.8,100.3c0-0.3,0-0.5,0-0.8c0-0.3,0-0.6,0.1-0.9c0.6,0,1.2,0,1.7,0c-0.6,0.9-0.6,1.7,0,2.5
			c-0.1,0.1-0.3,0.2-0.4,0.4c-0.2-0.1-0.3-0.2-0.5-0.3C211.4,100.9,211.1,100.6,210.8,100.3z"/>
		<path class="st0" d="M220.4,154.1c0.5,0.1,1.1,0.3,1.6,0.4c-0.5,0.1-1,0.2-1.6,0.3C220.6,154.6,220.6,154.4,220.4,154.1z"/>
		<path class="st40" d="M170.7,137.6c0,0.6,0,1.2,0,1.8c-1.1,0.4-2.3,1.5-3.5,0.1c0-0.3,0.1-0.5,0.2-0.8c0.5-0.3,1-0.7,1.5-1
			C169.5,137.7,170.1,137.1,170.7,137.6z"/>
		<path class="st283" d="M170.7,137.6c-0.6,0.1-1.2,1-1.8,0.1c0-0.6,0.1-1.1,0.1-1.7c1.5-0.3,2-1.6,2.8-2.7c0.4-0.2,0.7-0.1,1,0.2
			c0.4,1.1-0.2,1.9-1.1,2.4C171.4,136.5,171.1,137.1,170.7,137.6z"/>
		<path class="st284" d="M172.6,133.4c-0.2,0-0.5,0-0.7-0.1c-0.1-0.3-0.1-0.5-0.1-0.8c0,0,0,0,0,0c0.4-0.8,0.9-1.5,1.5-2
			c0.3-0.1,0.7,0,1,0.2c0,0.9,0,1.7,0,2.6c0.2,0.4,0.2,0.8-0.2,0.9C173.3,134.5,172.9,133.9,172.6,133.4z"/>
		<path class="st285" d="M148.1,108.1c0,0.6,0,1.2-0.1,1.8c-1.6,2.6-0.2,5.2,0,7.7c0,0,0.1,0.1,0.1,0.1c-0.2,2.1-2.1,3.3-2.7,5.2
			c-1.5,2.7-4.3,3.4-6.8,4.6c-0.6-0.2-1.1-0.6-1.3-1.2c-0.2-2,1.4-3.9,0.3-5.9c-0.3-1.7-0.3-3.5-0.3-5.2c0-0.9,0.1-1.7,0.3-2.6
			c0.8-3.4,1.1-6.7-1-9.8c-0.4-0.4-0.5-1-1-1.4c0,0,0.2-0.3,0.2-0.3c0.5-1.1,1.3-1.7,2.6-1.7c2.3,1.4,5.1,2,6.9,4.3
			c-0.8,0.5-1.8,1-1.9,2.2c1.3-0.2,2.5-0.3,3.7-0.5C147.5,106.4,147.8,107.2,148.1,108.1z"/>
		<path class="st286" d="M89.6,116.7c-1.5-1.2-0.4-2.3,0.1-3.4c0.6,0,1.1-0.1,1.7-0.1c0,0.3,0,0.6,0.1,1
			C90.3,114.6,89.7,115.6,89.6,116.7z"/>
		<path class="st287" d="M124.6,128.1c0-0.3,0-0.6,0-0.8c-0.6-1.6-2.1-2.1-3.5-2.6c-2-0.5-2.2-3.2-4.3-3.6c0-0.8-0.1-1.7-0.1-2.5
			c-1.1-3.2-1.3-6.4,0-9.6c-0.4-1.8,1-3,1.7-4.3c0.3-0.8,0.9-1.4,1.8-1.7c0,1.1,0.6,1.7,1.7,1.7c-2.7,1.5-0.8,3.8-1,5.8
			c-0.2,1.7-0.2,3.5-0.9,5.1c-2,4.6,0.7,5.9,4.4,6.5c1.3,0.8,1.6,2.3,2.8,3.2c0.9,0.6,2.2,1.5,1.4,2.7c-0.8,1.4-2.3,0.7-3.4,0.2
			l-0.4,0L124.6,128.1z"/>
		<path class="st288" d="M116.7,109c0,3.2,0,6.4,0,9.6c-0.7-0.4-0.8-1-0.9-1.7c-0.7-2.3-0.7-4.6,0-6.9
			C116.1,109.6,116.4,109.3,116.7,109z"/>
		<path class="st289" d="M115.8,109.9c0,2.3,0,4.6,0,6.9c-1.6-2.1-0.6-4.6-0.7-6.8C115.4,109.9,115.6,109.9,115.8,109.9z"/>
		<path class="st290" d="M172.6,133.4c0.5,0,1.2,0.9,1.6-0.1c0.6-0.3,1.1-0.6,1.7-0.9c0,0.3,0,0.6,0,0.9c-0.9,1.1-1.8,2.3-2.6,3.4
			c-0.5-0.3-1.1-0.6-1.6-0.8C172,135.1,172.3,134.2,172.6,133.4z"/>
		<path class="st291" d="M57.4,152.4c-3-0.2-6.1,0.5-10.2-0.9c4.7-1.5,8.4-0.6,12-0.9c0.9,0.3,1.7,0.6,2.6,0.9
			c0.3,2.5-1.6,2.1-3,2.2C58,153.6,57.7,153,57.4,152.4z"/>
		<path class="st292" d="M58.3,153.3c1.5,0.1,2.8-0.1,3.5-1.7c0.3,0,0.6,0,0.9,0c0.6,1,1.7,0.8,2.6,0.9c0.2,1.1,3,0.5,1.7,2.6
			c-2.6-0.2-5.4,0.6-7.8-0.8c-0.3,0.3-0.6,0.3-1,0.1C58,153.9,58,153.6,58.3,153.3z"/>
		<path class="st293" d="M57.4,149.8c-0.9-0.6-1.8-1.2-2.6-1.7c-0.5-0.5-0.5-1.1-0.2-1.7c0.4-0.3,0.7-0.3,1.1,0
			c0.6,0.3,1.1,0.6,1.7,0.9C57.4,148.1,57.4,148.9,57.4,149.8z"/>
		<path class="st294" d="M23.4,73.4c0.9,0,1.7,0,2.6,0c0.2,1.9-2,1.5-2.6,2.5c-0.3,0-0.6,0-0.9,0C22.8,75.1,23.1,74.2,23.4,73.4z"/>
		<path class="st295" d="M175.1,116.8c-2.5-0.2-3.4-1.3-2.5-3.8c0.4,0.4,0.7,0.8,1.1,1.2c0.1,0.8,0.6,1.3,1.5,1.5
			c0.3,0.1,0.6,0.3,0.8,0.4C176.1,116.7,175.9,117.1,175.1,116.8z"/>
		<path class="st296" d="M26.9,153.3c-0.3,0.6-0.6,1.1-0.9,1.7c-1.7,0-3.5,0-5.2,0c-0.7-1.2-0.3-2,1-2.1
			C23.5,152.9,25.2,152.4,26.9,153.3z"/>
		<path class="st297" d="M26.9,153.3c-2,0.6-4.8-1.4-6.1,1.7c-0.7-0.3-0.9-1-0.9-1.7c1.9-1.6,4.1-0.6,6.1-0.9
			C26.9,152.1,27.1,152.5,26.9,153.3L26.9,153.3z"/>
		<path class="st298" d="M26.9,153.3c-0.3-0.3-0.6-0.6-0.9-0.9c0-0.3,0-0.5,0.1-0.8c0.8,0,1.7,0,2.5-0.1c0.3,0.4,1,1.1,0.9,1.3
			C28.9,153.8,27.8,153.1,26.9,153.3z"/>
		<path class="st299" d="M129.8,153.3c-0.6,3.3-4.1,0.5-5.2,2.5c-0.9,0.2-1.7,0.5-2.6,0.7c-0.4-2.2-2.2-1.4-3.5-1.6
			c1.1-2.6-3.5-1.8-2.6-4.3c-0.2-0.6-0.8-1-0.9-1.7c0-0.3,0-0.6,0-0.9c0.9,0.3,1.7,0.7,2.6,1c1.9,1.5,3.1,3.9,6.1,3.4
			c1.2,0,2.3,0,3.5,0C128,152.7,128.9,153,129.8,153.3z"/>
		<path class="st39" d="M123.7,152.4c-3.7,1.8-4.6-1.3-6.1-3.4c0.6,0.3,1.2,0.6,1.8,0.9c1.2,0.5,2,1.8,3.4,1.7
			C123.1,151.8,123.4,152.1,123.7,152.4z"/>
		<path class="st300" d="M175.1,116.8c0.3-0.2,0.6-0.5,0.8-0.7c0.5-0.3,1.1-0.7,1.6-1c0.8,0.1,1.6,0.2,2,1.1
			c0.7,1.1,0.2,1.9-0.7,2.6c-0.4,0.2-0.8,0.3-1.2,0.2c-1-0.1-1.9-0.5-2.6-1.3C175.1,117.4,175.1,117.1,175.1,116.8z"/>
		<path class="st301" d="M178.5,118.5c0.4-0.8,0.7-1.6,1.1-2.4c0.5-0.7,1.1-1.4,1.6-2c0,0.3,0.1,0.7,0.1,1c0.2,2.3-0.4,4.2-2.6,5.2
			C178.1,119.7,178.1,119.1,178.5,118.5z"/>
		<path class="st302" d="M78.3,115.9c-2.2,2.9-5.4,3.3-8.7,3.5c-0.3,0.3-0.6,0.3-0.9,0c0.9-3.2-1.8-1.1-2.6-1.7
			c-0.4-1.2,0.8-1.4,1.2-2.1c0.1-0.6-0.3-0.9-0.6-1.3c-0.2-0.4-0.1-0.7,0.2-0.9c4-0.4,7.6-2,11.3-3.5c0.9,1.1,1.5,2.4,2,3.7
			C80.9,115,81,116.8,78.3,115.9z"/>
		<path class="st303" d="M78.3,115.9c2.2-0.4,2.2-1.8,0.8-2.8c-1.4-1-1-2.1-0.8-3.3c0.3-0.3,0.6-0.6,0.9-0.9
			c4.6,4.1,4.8,5.1,1.7,7.8C79.8,117.3,78.5,118.2,78.3,115.9z"/>
		<path class="st193" d="M67,113.4c0,0.3,0,0.5,0,0.8c-0.3,0.4-0.7,0.7-1.2,0.8c-2.6,0.5-5.2,0.6-7.8-0.1c-0.5-0.2-0.8-0.6-1-1
			c-0.1-0.5,0-0.9,0.3-1.3c0,0,0.2-0.3,0.2-0.3c0.3,0.1,0.6,0.2,0.8,0.3C61.1,114.1,64.1,113,67,113.4z"/>
		<path class="st304" d="M57.4,112.5c0,0.3,0,0.5,0,0.8c-0.2,0.3-0.8,0.3-0.8,0.6c0,0.5,0.5,0.2,0.8,0.2c2.9,0,5.8,0,8.7,0
			c-1.3,2.7-3.6,0.7-5.1,1.2c-0.8,0-0.1,1-0.3,0.4c0,0,0.1-0.1,0.2-0.1c2.6,0,5.2-1.1,7.8,0.2c-0.9,0.6-1.7,1.2-2.6,1.7
			c-0.6,0.3-1.2,0.6-1.8,0.9c-2.2-1.6-4.4-2.8-7-0.9c-1.2,1.2-1.3,2.6-1.3,4.2c-0.1,5.3,0.1,10.7,0,16c-0.1,0.7-0.4,1.3-1.1,1.7
			c-0.8,0.1-1.3-0.3-1.7-0.8c-0.7-1.2-1-2.4-0.7-3.7c0.9-4.6,0.5-9.1-0.9-13.5c-0.1-0.6-0.1-1.2,0.1-1.9c1.7-2-0.1-4.2,0.4-6.3
			c0.1-0.6,0.2-1.2,0.5-1.7c0.9-1.1,1.2-2.4,2-3.5c0.4-0.2,0.7-0.2,1.1,0.1C55.7,109.8,55.4,111.6,57.4,112.5z"/>
		<path class="st305" d="M53,111.6c0,0.6,0,1.2,0,1.7c-1.1,1,0.2,2.7-1.1,3.7c-2.6-1.2-1.3-3.5-1.6-5.4c-0.6-1.1-1-2.2-0.9-3.5
			c-0.7-0.8-1.3-1.7-1.2-2.7c0.1-6.6-0.6-13.3,0.4-19.9c-0.5-2.1,1.7-3.3,1.7-5.2c-0.2-0.2-0.3-0.4-0.2-0.6c0.1-0.2,0.1-0.3,0.2-0.3
			c0.6,0,1.2,0,1.7,0c1,0.6,0.9,1.6,0.9,2.6c0.5,1.1,0,2.2-0.3,3.2c-0.1,0.4-0.3,0.7-0.5,1c-0.2,0.3-0.4,0.7-0.5,1.1
			c-0.2,5.7-0.3,11.3,0.1,17c0.2,0.3,0.4,0.6,0.8,0.8c0.7,0.3,1.4,0.4,2.1,0.8c0.5,0.3,0.9,0.7,1,1.4c0,0.3,0,0.6,0,0.9
			c0,0-0.4,0-0.4,0l-0.4,0C53.1,108.7,53.7,110.5,53,111.6z"/>
		<path class="st306" d="M52.2,85.5C52,84.3,52.4,83.1,53,82c1.7,1.4,2.2,3.5,3.5,5.2c0,5.3,0,10.6,0,15.9c0,1.4,0.5,2.9-0.8,4
			c-0.3-0.3-0.6-0.6-0.9-0.9c-2.5-4.4-0.8-9.3-1.3-13.9C53.3,90.1,54,87.6,52.2,85.5z"/>
		<path class="st307" d="M63.5,72.6c0.3,0,0.6,0,0.9,0c1.7,0.9,3.6,0.2,5.4,0.4c0.8,0.1,1.8-0.1,1.6,1.3c-1.6,0.1-2.4,2.3-4.3,1.7
			c-1.3-0.9-3,0.2-4.4-0.8l0,0C61.7,73.8,62.5,73.1,63.5,72.6z"/>
		<path class="st308" d="M71.3,74.2c-1.9-2-5,0.4-6.9-1.7c2.6,0,5.2,0,7.8,0c-0.1,0.6-0.1,1.2-0.2,1.7
			C71.8,74.2,71.5,74.2,71.3,74.2z"/>
		<path class="st308" d="M63.5,72.6c-0.3,0.8-0.6,1.7-0.9,2.5c-0.7,0-1.4-0.2-1.7-0.9c0-0.7,0.2-1.3,0.9-1.7
			C62.4,72.5,62.9,72.5,63.5,72.6z"/>
		<path class="st308" d="M62.6,75.1c1.5,0.2,3.1-0.5,4.4,0.8C65.5,75.8,63.9,76.5,62.6,75.1z"/>
		<path class="st309" d="M72.2,128.1l-0.4,0c0,0-0.4,0-0.4,0c-0.6-1.1-1.9-1.9-1.8-3.4c1,0,2-0.2,2.6,0.9
			C72.2,126.3,72.2,127.2,72.2,128.1z"/>
		<path class="st310" d="M87.1,115.9c-0.6,0-1.2,0-1.8,0c0-0.3,0-0.6,0-0.9c0-0.7,0.2-1.4,0.9-1.7c0.3,0,0.6,0,0.9,0
			C87.1,114.2,87.1,115.1,87.1,115.9z"/>
		<path class="st309" d="M68.7,119.4c0.3,0,0.6,0,0.9,0c-0.1,0.8,0.3,1.8-0.8,2.2c-0.2,0.1-0.6-0.2-0.7-0.3
			C67.8,120.5,68.1,119.9,68.7,119.4z"/>
		<path class="st311" d="M66.1,121.1c-0.3-0.3-0.6-0.6-0.9-0.9c0.3-0.6,0.8-1.5,1.4-1.1C67.4,119.8,66.9,120.6,66.1,121.1z"/>
		<path class="st2" d="M115,148.9c0.5,0.5,1.9,0.5,0.9,1.7c-4.4-0.2-8.8,0.8-13.1-0.9c1.1,0,1.7-0.6,1.7-1.7
			C107.7,151.6,111.4,149.1,115,148.9z"/>
		<path class="st312" d="M84.4,142c0.9-0.3,1.8-0.6,2.6-0.9c0.9,0.3,1.2,1.1,1.7,1.7c0,0.3,0,0.6,0,0.9c-0.7,0.5-0.9,1.5-1.8,1.8
			C85.7,144.7,84.5,143.7,84.4,142z"/>
		<path class="st313" d="M87,145.5c0.1-1.1,0.6-1.7,1.8-1.8c0,1,0.1,2-0.9,2.6C87.6,146.1,87.3,145.8,87,145.5z"/>
		<path class="st2" d="M104.5,143.7c1.2,0.6,2,1.4,2.6,2.6C105.2,146.5,104.3,145.7,104.5,143.7z"/>
		<path class="st314" d="M88.8,142.9c-1.1,0-1.7-0.6-1.7-1.7c0.6-1,1.7-0.8,2.6-0.9C89.4,141.1,89.1,142,88.8,142.9z"/>
		<path class="st200" d="M53.9,138.5c0.3,0.3,0.6,0.6,0.9,0.9c1.7,1.8-0.6,4.2,0.9,6.1c0,0.3,0,0.6,0,0.9c-0.3,0-0.6,0-0.9,0
			c-0.5,0.5-1,0.6-1.7,0.3c-0.8-1.3-1.5-2.5-2.7-0.3c-0.8-0.2-2.1,1.1-2.5-0.4c-0.4-1.3-0.5-2.9,1.6-3.1c1.2-1.5,0.1-4.1,2.5-4.9
			C52.8,137.9,53.4,138,53.9,138.5z"/>
		<path class="st193" d="M55.7,138.5c0-5.8,0-11.6,0-17.4c0.3-0.4,0.6-0.4,0.9,0c0,5.6,0,11.2,0,16.8c0,1.4,0.5,2.9-0.8,4.1
			C55,140.8,55,139.7,55.7,138.5z"/>
		<path class="st315" d="M55.7,138.5c0,1.2,0,2.3,0,3.5c0,1.2,0,2.3,0,3.5c-1.7-1.8-0.5-4.1-0.9-6.1
			C55.1,139.1,55.4,138.8,55.7,138.5z"/>
		<path class="st316" d="M56.5,121.1c-0.3,0-0.6,0-0.9,0c0.2-1.4-0.6-3.1,1.7-3.5c0,0.3,0.1,0.6,0.1,0.9c0.1,0.3,0.1,0.5,0,0.8
			C56.7,119.8,56.6,120.4,56.5,121.1z"/>
		<path class="st317" d="M35.6,128.1c0-14.2,0-28.4,0-42.6c0-1.4,0-2.8,0-4.3c2.7,4.9,1.5,10.1,1.7,15.2c0.2,5.2,0,10.4,0,15.6
			c0,5.3,0,10.7,0,16C36.8,128.6,36.2,128.6,35.6,128.1z"/>
		<path class="st318" d="M52.2,138.5c-1.4,1.1-1,3.4-2.6,4.3c0-0.9,0-1.7,0-2.6c-0.5-0.6-0.7-1.3-0.6-2.1c0.5-3.4,0.2-6.8,0.3-10.3
			c0.2-4-0.6-8,0.3-12c0.2-1.5-0.6-3.1,0.9-4.3c1.3,1.5,0.2,3.8,1.7,5.2c0.7,0.9,0.7,1.7,0,2.6c0,0.6,0,1.2,0,1.8
			C53.3,126.9,53.5,132.7,52.2,138.5z"/>
		<path class="st319" d="M49.5,115.9c1.4,4,0.7,8.1,0.9,12.1c-1.4,0.5-1.5-0.7-1.9-1.4c-0.3-0.6-0.1-1.5-0.7-2
			C48.5,121.7,46.2,118.3,49.5,115.9z"/>
		<path class="st320" d="M48.7,85.5c0.4,7.5-0.9,15.1,0.9,22.6c-0.5,0-1.1,0-1.6,0C48.2,100.5,46.8,93,48.7,85.5z"/>
		<path class="st321" d="M58.3,153.3c0,0.3,0,0.6,0,0.9c-7,0.7-14,0.7-20.9,0c-0.3,0-0.6,0-0.9,0c-0.2-0.8,0-1.2,0.9-0.9
			c5.3,0,10.7,0,16,0c1.4,0,2.9,0.5,4.1-0.8C57.7,152.7,58,153,58.3,153.3z"/>
		<path class="st322" d="M35.6,128.1c0.6,0,1.2,0,1.7,0c0,2.5,0,5.1,0,7.6c0,1.3,0,2.6-1.7,2.8C35.6,135,35.6,131.6,35.6,128.1z"/>
		<path class="st323" d="M47.8,124.6c0.7,0.4,0.9,1,0.9,1.7c1.3,3.9,1.1,7.8,0.4,11.7c-0.3,0.6-0.7,0.7-1.3,0.4
			C47.8,133.9,47.8,129.2,47.8,124.6z"/>
		<path class="st324" d="M50.4,146.3c0-1.7,0.2-3.1,2.1-3.7c0.9,1.2,0.3,2.5,0.5,3.7c0.2,0.2,0.3,0.4,0.2,0.6
			c-0.1,0.2-0.2,0.3-0.2,0.3C52.2,146.9,51.3,146.6,50.4,146.3z"/>
		<path class="st325" d="M37.3,153.3c-0.3,0.3-0.6,0.6-0.9,0.9c-0.6,0-1.1,0-1.7,0c-0.6-1-1.7-0.8-2.6-1.7c1.4,0,2.9,0,4.3,0
			C36.8,152.7,37,153,37.3,153.3z"/>
		<path class="st326" d="M53,147.2c0-0.3,0-0.6,0-0.9c0.6,0,1.2,0,1.7,0c0,0.6,0,1.2,0,1.7c-0.2,0.6-0.1,1.6-1.1,1.3
			C52.8,149,53.1,148,53,147.2z"/>
		<path class="st327" d="M50.4,79.4c0,0.3,0,0.6,0,0.9c-0.7,0.1-1.4,1.1-2.2,0.2c-0.2-0.2,0-0.8,0.2-1.1
			C49.1,78.7,49.8,78.5,50.4,79.4z"/>
		<path class="st328" d="M47.8,138.5c0.3,0,0.6,0,0.9,0c0.3-0.3,0.6-0.3,0.9,0c0,0.6,0,1.2,0,1.7c-0.4,0.3-1.1,1-1.3,0.9
			C47.3,140.5,48,139.4,47.8,138.5z"/>
		<path class="st329" d="M205.6,122.9c1.7-2.5,3.8-4.4,6.8-5.2c1.5,1.3,0.8,2.8,0.2,4.2c-0.1,0.2-0.2,0.4-0.2,0.7
			c-0.8,0.5-1.7,1-2.5,1.6C208.2,124.7,206.7,124.5,205.6,122.9z"/>
		<path class="st330" d="M205.5,116.8c1.2,0,2.4,0,4.3,0c-2,1.7-3.5,3-5,4.3C204.9,119.7,204.2,118.1,205.5,116.8z"/>
		<path class="st331" d="M244.9,116.8c0,0.3,0,0.6,0,0.9c-0.3,0-0.6,0-0.9,0c-0.3,0-0.5-0.1-0.8-0.1c-2.2-0.9-2.1-2.9-2.1-4.7
			c0-5.3-0.2-10.5,0.1-15.8c0.1-0.5,0.3-1,0.5-1.4c0.2-0.2,0.4-0.4,0.6-0.5c2.5-0.8,1.7,1.2,1.7,2.2c0.1,4.9,0,9.7,0,14.6
			C244,113.5,243.9,115.3,244.9,116.8z"/>
		<path class="st332" d="M238.8,90.7c0-0.6,0-1.2,0-1.7c0-1-0.2-2.5,0.8-2.6c1.7-0.3,1.9,1.6,2.7,2.6
			C241,89.5,240.3,90.9,238.8,90.7z"/>
		<path class="st333" d="M238.8,94.2c0-0.6,0-1.2,0-1.7c2-0.3,4.2-0.8,3.5,2.6c0,0,0,0,0,0C240.7,96.2,239.6,95.7,238.8,94.2z"/>
		<path class="st334" d="M243.1,127.2c-1.5,0-2.9,0-4.4,0c-0.1-1.8-0.3-3.6,0.6-5.2c1.5-0.8,2.6-0.1,3.7,0.9c1.6,1.2,0.4,2.3,0,3.5
			C243.1,126.6,243.1,126.9,243.1,127.2z"/>
		<path class="st335" d="M243.1,122.9c-1.3,0.1-2.4-0.3-3.5-0.9c-0.3-0.3-0.5-0.7-0.4-1.2c0-1.4-0.1-2.9,2-2.8
			c0.7,0.2,1.3,0.5,1.1,1.4C242.8,120.5,243.3,121.6,243.1,122.9z"/>
		<path class="st336" d="M242.3,119.4c-0.3-0.3-0.6-0.6-0.9-0.9c0.3-2.1,1.5-1.2,2.6-0.9c0,0,0,0,0,0
			C244,118.8,243.4,119.4,242.3,119.4z"/>
		<path class="st337" d="M138.5,127.2c1.7-2.5,4.9-2.5,6.9-4.4c0,0.6,0,1.2,0,1.8c-2,1.8-4.1,3.4-7,3.6c0,0,0.1-0.3,0.1-0.3
			c-0.2-0.2-0.3-0.3-0.2-0.5C138.4,127.3,138.4,127.2,138.5,127.2z"/>
		<path class="st338" d="M137.6,128.1c-1,1-2.3,0.6-3.5,0.8c-0.8-0.5-1.9-0.8-2-2c0.6-1.5,2-1.7,3.4-1.7c0.4,0.1,0.6,0.3,0.9,0.6
			C136.7,126.6,137.3,127.3,137.6,128.1z"/>
		<path class="st339" d="M129.8,130.7c-1.4-0.1-2.6-0.6-3.5-1.7c1-0.8,2.5-0.4,3.6-1c1.3-0.2,2.6-0.1,3.4,1.2
			C132.3,130.2,130.6,129.3,129.8,130.7z"/>
		<path class="st340" d="M133.2,129.3c-1.2-0.1-2.3-0.2-3.5-0.3c-0.8-1-0.3-1.7,0.6-2.2c0.7-0.2,1.4-0.1,2,0.5
			c0.6,0.6,1.2,1.1,1.7,1.7C133.8,129,133.5,129.1,133.2,129.3z"/>
		<path class="st341" d="M137.6,128.1c-1.1-0.1-1.7-0.6-1.7-1.7c0.5-0.5,1.1-0.6,1.7-0.1c0.3,0.3,0.6,0.6,0.9,0.9c0,0.2,0,0.5,0,0.7
			C138.2,128,137.9,128.1,137.6,128.1z"/>
		<path class="st342" d="M130.7,127.2c-0.7,0.4-0.9,1-0.9,1.8c-1.2,0-2.3,0-3.5,0.1c-0.3-0.3-0.7-0.6-1-0.9c1-0.1,1.9-0.2,3.5-0.3
			c-2-2-4.8-2.8-4.3-5.8c0.3-0.3,0.7-0.6,1-0.9c1-0.2,1.3,0.6,1.8,1.2c1,1.4,2.3,2.5,3.5,3.8C131,126.5,130.9,126.8,130.7,127.2z"/>
		<path class="st343" d="M148,117.6c-0.5-2.6-3.2-5.2,0-7.7C148,112.5,148,115,148,117.6z"/>
		<path class="st344" d="M239.6,121.1c0,0.3,0,0.6,0,0.9c0,1.8,0.2,3.6-0.9,5.2c-0.6,0-1.2,0-1.7,0c1.5-1.8,0-4.4,1.7-6.1
			C239.1,120.7,239.3,120.7,239.6,121.1z"/>
		<path class="st345" d="M37.3,154.2c7,0,14,0,20.9,0c0.3,0,0.6,0,0.9,0c-3.5,1.8-7.3,0.6-11,0.8c-3.6,0.2-7.2,0-10.8,0
			C37.3,154.7,37.3,154.4,37.3,154.2z"/>
		<path class="st346" d="M217.8,115.1c0.7,0,1.4,0.2,1.7,0.9c0,0.6,0,1.2,0,1.7c-0.4,0.7-1,1.1-1.7,1.4c-1.2,0.3-2.1,1.7-3.5,1.2
			c-0.3,0-0.5,0-0.8,0c-1-1.1-0.3-2.5-0.5-3.7C214,114.1,216,114.6,217.8,115.1z"/>
		<path class="st347" d="M214.4,120.3c1-0.9,1.8-2.1,3.5-1.7c0.5,0.6,0.5,1.1,0,1.7c-0.1,0.9,0.2,2.3-1.1,2.4
			C215,122.9,214.5,121.7,214.4,120.3z"/>
		<path class="st348" d="M213.5,115.9c0,1.4,0,2.9,0,4.3c-0.1,0.7-0.2,1.4-1,1.7c-0.1-1.4-0.1-2.8-0.2-4.2c0-1.2,0-2.4,0-3.5
			c0.1-0.6,0.1-1.1,0.2-1.7c0.5-0.3,0.9-0.2,1.2,0.2C214.5,113.8,214.3,114.9,213.5,115.9z"/>
		<path class="st349" d="M217.9,120.2c0-0.6,0-1.1,0-1.7c0.4-0.7,1-0.9,1.8-0.9C221.1,119.9,219.2,119.9,217.9,120.2z"/>
		<path class="st350" d="M213.5,115.9c0-1.2,0-2.4,0-3.5c-0.3-0.7,0.1-0.9,0.6-1.2c0.7-0.3,1-0.8,0.4-1.5c-0.2-0.3-0.4-0.6-0.6-0.9
			c-0.2-0.5-0.2-1.1,0-1.6c0.3-0.7,0.6-1.4,1.3-1.7c4.3,2.3,2.7,6.1,2.6,9.6C216.6,116.3,214.9,115.2,213.5,115.9z"/>
		<path class="st282" d="M215.2,105.5c0,0.7-0.2,1.3-0.8,1.7c-1.2-0.8-0.7-2.2-1.2-3.3c-0.1-1-1-1.7-0.6-2.8c0,0,0.1-0.1,0.1-0.1
			C215.5,101.4,215.2,103.5,215.2,105.5z"/>
		<path class="st351" d="M167.3,105.5c-1.9-0.2-4.1,0.7-5.2-1.7c0.9,0,1.7,0,2.6,0c0.8-0.6,1.7-0.7,2.6,0
			C167.2,104.3,167.3,104.9,167.3,105.5z"/>
		<path class="st352" d="M167.2,103.7c-0.9,0-1.7,0-2.6,0c0.5-1.1,1.3-1.7,2.6-1.7C167.2,102.6,167.2,103.2,167.2,103.7z"/>
		<path class="st353" d="M239.6,121.1c-0.3,0-0.6,0-0.9,0c0-1.2,0-2.3,0-3.5c0.1-0.5,0.3-1,0.4-1.5c0.5-5.9-0.3-11.8,0.5-17.7
			c0.2-1.5,0.1-3.4,2.6-2.6c0,5.7,0.1,11.5,0,17.2c0,1.8,0.3,3.4,1.8,4.5c-1,0-2-0.2-2.6,0.9C239.6,118.6,239.6,119.9,239.6,121.1z"
			/>
		<path class="st333" d="M239.6,117.7c-0.3,0-0.6,0-0.9,0c-1.6-6.1-0.9-12.2-0.4-18.3c0.1-1.1,0.3-2.3,0.4-3.4
			c0.7-0.1,1.2,0.2,1.2,0.9C239.9,103.8,240.6,110.7,239.6,117.7z"/>
		<path class="st211" d="M239.6,117.7c0-5.9,0-11.8,0-17.7c0-1.4,0.5-2.9-0.8-4c0-0.6,0-1.2,0-1.7c1.1,0.6,2.2,1,3.5,0.9
			c0,0.3,0,0.6,0,0.9c-2.2,0.3-1.7,2-1.7,3.4c0,4.8,0,9.5,0,14.3C240.5,115,241,116.5,239.6,117.7z"/>
		<path class="st354" d="M212.6,101.2c0.3,0.8,0.6,1.7,0.9,2.5c0.8,1.7,0.2,3.5,0.4,5.2c0.2,1.6-0.4,2.5-2.2,2l-0.1-0.3
			c-1.2-1.7-0.8-3.1,0.8-4.2c0-0.6,0-1.1-0.1-1.7c-0.2-1.2-0.5-2.3-0.7-3.5C212,101.2,212.3,101.2,212.6,101.2z"/>
		<path class="st355" d="M212.5,106.4c-0.3,1.4-0.6,2.8-0.8,4.2c-0.9,0-1.7-0.1-2.6-0.1C207.8,106.4,208.2,105.9,212.5,106.4z"/>
		<path class="st356" d="M211.7,110.9c1.1-0.2,1.7-0.8,1.8-2c0.3-0.4,0.5-0.4,0.8,0c0.3,0,0.6,0,0.9,0c0.4,1.1,0.1,2-0.9,2.6
			c-0.3,0.3-0.6,0.6-0.9,0.8c-0.3,0-0.6,0-0.9,0.1c-0.3-0.1-0.6-0.2-0.9-0.2C211.7,111.8,211.7,111.4,211.7,110.9z"/>
		<path class="st357" d="M126.7,122.8c-0.4-0.6-0.8-1.1-1.1-1.7c0-0.6,0.1-1.2,0.1-1.7c0.5-2.5,0.1-5,0.2-7.5c0.7-1.3-0.2-3.4,2-4
			c0.4,0.3,0.7,0.6,0.9,1.1c0.4,1.1,0.4,2.3,0.4,3.5c0,1.9,0.1,3.7-0.3,5.6C128.1,119.6,128.8,121.9,126.7,122.8z"/>
		<path class="st358" d="M126.3,111.6c-0.4,2.6,0.7,5.3-0.7,7.8c-0.1-0.3-0.2-0.6-0.2-0.8c0-3.5,0.1-6.9,0.1-10.4
			c0.2-0.1,0.5-0.1,0.7-0.1C127,109.3,126.9,110.4,126.3,111.6z"/>
		<path class="st359" d="M126.3,111.6c0-1.2-0.1-2.3-0.1-3.5c-0.2-2,0.5-3.6,1.7-5.1c0.6-0.1,1.2-0.1,1.8-0.2
			c1.5,1.8,1.3,2.4-1.7,5.2C127.4,109.2,126.9,110.4,126.3,111.6z"/>
		<path class="st360" d="M128,108c-0.2-2,2.9-2.9,1.7-5.2c1-1.2,2.3-0.8,3.5-0.8c0.5,0.4,1.2,0.8,1.1,1.7c-0.5,0.7-1.4,0.9-2.2,1.3
			c-0.5,0.3-0.4,0.8-0.4,1.3c-0.1,0.3-0.3,0.6-0.6,0.9c-1,0.6-1.5,2.1-3.1,1.9C128,108.7,128,108.4,128,108z"/>
		<path class="st361" d="M134.1,103.7c-0.3-0.6-0.6-1.1-0.9-1.7c0.8-0.1,1.8,0.2,2.4-0.6c0.4,0.2,0.7,0.4,1.1,0.6
			c1,1,1.4,2.2,1.5,3.6c-0.1,0.4-0.3,0.7-0.6,0.9c-0.4,0.1-0.7,0.1-1.1,0c-0.5-0.5-0.9-1.1-1.5-1.6
			C134.7,104.6,134.4,104.2,134.1,103.7z"/>
		<path class="st362" d="M129.8,100.5c1.4,0,2.8,0,4.2,0C132.6,101.5,131.2,101.5,129.8,100.5z"/>
		<path class="st363" d="M178.5,118.5c0,0.6,0.1,1.2,0.1,1.8c-0.2,0.6-0.5,1.1-0.7,1.7c-0.4,0.9-0.7,1.8-1.1,2.7
			c-0.9,2-1.7,4.1-2.6,6.1c0,0,0,0,0,0c-0.3,0-0.6,0-0.8,0c-0.5-0.6-0.5-1.2,0-1.7c0-0.6,0-1.1,0-1.7c0.7-0.8,0.3-2.3,1.7-2.7
			c0.3-0.8,0.6-1.7,1-2.5c0.9-1,0.3-2.7,1.8-3.5C178,118.5,178.3,118.5,178.5,118.5z"/>
		<path class="st284" d="M174.2,130.7c0.1-2.4,1.1-4.3,2.6-6.1C176.9,127,175.9,129,174.2,130.7z"/>
		<path class="st364" d="M121.1,124.6c1.9-0.1,3.4,0.4,3.5,2.6C123.4,126.4,122.2,125.5,121.1,124.6z"/>
		<path class="st365" d="M168.1,105.5c-0.2,1,0.5,2.3-0.8,3c-0.1,0.1-0.6-0.1-0.7-0.3c-0.5-1,0.2-1.8,0.6-2.7
			C167.6,105.5,167.8,105.5,168.1,105.5z"/>
		<path class="st366" d="M175,124.6c-0.6,0.9-1.1,1.8-1.7,2.7c-1.8-4.4-1.8-4.4-0.7-7.6C173.8,121.4,173.4,123.6,175,124.6z"/>
		<path class="st367" d="M168.6,111.8c0.8,0.1,1.2,0.6,1.2,1.5c0,0.9-0.3,1.7-1.4,1.6c-0.9-0.1-1-0.9-1-1.6
			C167.4,112.4,167.7,111.9,168.6,111.8z"/>
		<path class="st368" d="M177.8,118.6c-0.2,1.4-0.6,2.6-1.8,3.5c-0.3-1.5-0.6-2.9-0.9-4.4C176.1,117.7,177.1,117.5,177.8,118.6z"/>
		<path class="st369" d="M165.5,107.5c-0.3,0.4-0.4,1-0.7,1c-0.7,0.2-1-0.4-0.9-0.9c0-0.3,0.4-0.7,0.7-0.8
			C164.9,106.8,165.2,107.2,165.5,107.5z"/>
		<path class="st58" d="M173.3,128.9c0,0.6,0,1.2,0,1.7c-0.6,0.6-1.1,1.2-1.7,1.8C171.7,131,172.3,129.9,173.3,128.9z"/>
		<path class="st370" d="M138.8,112.3c-0.1,0.9-0.1,1.8-0.2,2.7c-1.1,1.6-0.2,3.4-0.6,5.1c-0.5,1.9-1,3.6-3.1,4.4
			c-1.9,0.4-3.8,0.6-5.6-0.3c-0.6-0.4-0.9-1-1-1.7c0-0.4,0.1-0.8,0.3-1.2c1-1.8,3.6-0.4,4.5-2.4c-0.9-1.1-1.9,0.2-2.8-0.1
			c-0.9-0.2-1.4-0.8-1.6-1.7c0-1.5,0-3,0-4.6c0.1-2.5,0.7-4.8,3-6.3l0,0c1.7-1.4,3.5-1.3,5.2,0l0,0c1.8,1.1,1.7,3,1.9,4.8
			C138.8,111.6,138.8,111.9,138.8,112.3z"/>
		<path class="st371" d="M142.9,116.2c-1.1-2.8-1.2-5.6-0.4-9.3C144.4,110.5,143.5,113.4,142.9,116.2z"/>
		<path class="st372" d="M138.8,112.3c-0.1-0.2-0.1-0.5-0.2-0.7c-0.8-1.7-0.5-3.6-0.9-5.3c0.4-1.5-0.9-2.7-0.9-4.2
			C140.7,104.9,139.4,108.7,138.8,112.3z"/>
		<path class="st337" d="M137.6,126.3c-0.6,0-1.1,0-1.7,0.1c0-0.3-0.1-0.7-0.1-1c-0.2-0.3-0.2-0.7,0-1c0.6-1,1.1-2,1.5-3
			c0.3-0.3,0.6-0.4,1-0.3C140.6,123.1,138,124.6,137.6,126.3z"/>
		<path class="st373" d="M142.8,121.2c-0.1,0.9,0.3,2.1-1.2,2.4c-0.6,0.1-1.1-0.2-1.3-0.9c-0.3-1.3,0-2.3,1.6-2.4
			C142.5,120.4,142.7,120.7,142.8,121.2z"/>
		<path class="st374" d="M142.8,121.2c-0.3-0.3-0.6-0.6-0.9-0.9c0.2-0.8-0.3-1.9,0.8-2.1c0.3-0.1,0.9,0.6,1.2,1
			C144.8,120.4,144.1,121,142.8,121.2z"/>
		<path class="st375" d="M138.3,121c-0.2,0.1-0.4,0.1-0.6,0.2c-0.3-0.1-0.4-0.3-0.4-0.5c0-0.2,0-0.3,0.1-0.3
			c0.5-1.7-0.5-3.8,1.2-5.3C138.5,117.1,138.4,119,138.3,121z"/>
		<path class="st376" d="M68.7,115.9c-2.8,0-5.7,0-9,0c2.2-1.8,4.8,0.2,6.4-1.7c0.3,0,0.6,0,0.9,0C67.8,114.5,70,113.5,68.7,115.9z"
			/>
		<path class="st377" d="M73.4,115.9c-0.9,0-1.8-0.1-1.8-1.3c0-1.1,1-1.3,1.9-1.2c0.8,0,1.9-0.1,1.9,1.1
			C75.2,115.4,74.3,115.8,73.4,115.9z"/>
		<path class="st378" d="M57.4,114.2c-0.1,1.2-0.7,1.4-1.7,0.9c-0.7-0.4-1.2-1.1-0.7-1.7c0.6-0.9,1.5,0.2,2.3,0
			C57.4,113.6,57.4,113.9,57.4,114.2z"/>
		<path class="st379" d="M52.2,138.5c0-5.8,0-11.6,0-17.4c2.3,4.1,2.3,8.5,1.5,12.8c-0.3,1.6,0,3,0.2,4.5
			C53.3,138.5,52.8,138.5,52.2,138.5z"/>
		<path class="st380" d="M53,111.6c-0.5-1.2-1.4-2.4-0.5-3.6c0.7-1,1.5,0,2.3,0.1C54.6,109.5,55.4,111.3,53,111.6z"/>
		<path class="st381" d="M52.2,119.4c0-0.9,0-1.7,0-2.6c0.1-1.2-0.4-2.6,0.9-3.5c0.2,1.4-0.3,2.8,0.6,4.2
			C54.9,119.3,53.2,119.1,52.2,119.4z"/>
		<path class="st382" d="M52.2,85.5c2.6-0.2,2.6,1.4,2.6,3.3c0,5.8,0,11.7,0,17.5c-0.9,0-1.7,0-2.6,0C50.7,99.4,50.7,92.5,52.2,85.5
			L52.2,85.5z"/>
		<path class="st383" d="M51.3,106.4c-1.4-6.9-1.4-13.9,0-20.8C52,92.5,52,99.4,51.3,106.4z"/>
		<path class="st306" d="M51.3,106.4c0-6.9,0-13.9,0-20.8c0.3,0,0.6,0,0.9,0c0,7,0,13.9,0,20.9C51.9,106.4,51.6,106.4,51.3,106.4z"
			/>
		<path class="st384" d="M49.6,138.5c-0.3,0-0.6,0-0.9,0c0-4.1,0-8.1,0-12.2c0.6,0.6,1.2,1.2,1.7,1.7
			C50,131.6,51.4,135.2,49.6,138.5z"/>
		<path class="st385" d="M135.8,124.6c0,0.2,0,0.5,0,0.7c-1.2,0.6-2.3,1.2-3.5,1.8c-0.5,0-1.1,0-1.6,0c-0.1-0.2-0.1-0.4-0.2-0.7
			c-0.4-1-2.3-1.2-1.6-2.8c2,0,4,0,6,0C135.4,123.9,135.7,124.2,135.8,124.6z"/>
		<path class="st386" d="M129,123.8c0.5,0.9,1.1,1.9,1.6,2.8c-2-0.5-2.9-2.2-3.9-3.8c1.2-1.2-0.1-3.1,1.2-4.2c1.5,0.8,0.2,2.4,1,3.5
			C128.9,122.6,128.9,123.2,129,123.8z"/>
		<path class="st387" d="M214.3,111.6c0.3-0.9,0.6-1.7,0.9-2.6c1,0.5,1.7,1.1,1,2.3C215.7,112.1,215.2,112.6,214.3,111.6z"/>
		<path class="st388" d="M214.3,109l-0.4,0c0,0-0.4,0-0.4,0c0-1.7,0-3.5-0.1-5.2c1.2,0.9,0.7,2.3,0.9,3.5
			C214.4,107.8,214.4,108.4,214.3,109z"/>
		<path class="st389" d="M128.9,122c-1.2-0.9-0.7-2.3-0.9-3.5c0-2,0.1-4.1,0.1-6.1c0.3-0.4,0.6-0.4,0.9,0c0,1.7,0,3.5,0,5.2
			c0.7,1.2,1.8,2.3,0,3.5C128.9,121.4,128.9,121.7,128.9,122z"/>
		<path class="st390" d="M128.9,112.5c-0.3,0-0.6,0-0.9,0c0-1.1,0-2.2,0.1-3.4c1.1-1,1.4-2.9,3.4-2.7
			C130.2,108.2,129.3,110.2,128.9,112.5z"/>
		<path class="st391" d="M136.7,106.4c-1.7,0-3.4,0-5.2,0c-0.1-0.6-0.9-1.1,0-1.7c1.4-0.8,2.9-0.5,4.3-0.1
			C136.6,105,136.8,105.6,136.7,106.4z"/>
		<path class="st392" d="M135.8,104.6c-1.4,0-2.9,0.1-4.3,0.1c0.6-1.1,1.7-0.9,2.6-0.9C134.7,104,135.3,104.3,135.8,104.6z"/>
		<path class="st375" d="M137.6,106.3c1.1,1.6,0.9,3.5,0.9,5.3c-1.2-1.5-1.4-3.4-1.8-5.2C137,106.4,137.3,106.3,137.6,106.3z"/>
		<path class="st393" d="M129,121.1c0.7-1.2,0-2.3,0-3.5c0.6,0.3,1.1,0.6,1.7,0.9c1.2-0.8,2.3-0.8,3.5,0c1.5,1.8-0.1,2.3-1.3,2.5
			C131.6,121.3,130.3,121.1,129,121.1z"/>
		<path class="st394" d="M135.8,124.6c-0.3-0.3-0.6-0.6-0.8-0.9c0.8-1.1,1.6-2.3,2.4-3.4c0.1,0.3,0.2,0.6,0.3,0.9
			C137.5,122.5,136.8,123.7,135.8,124.6z"/>
		<path class="st395" d="M134.1,118.5c-1.2,0-2.3,0-3.5,0C131.8,116.4,133,116.5,134.1,118.5z"/>
	</g>
</g>
</svg>
